<svg width="180" height="39" viewBox="0 0 180 39" fill="none" xmlns="http://www.w3.org/2000/svg">
<path id="Union" fill-rule="evenodd" clip-rule="evenodd" d="M173.505 11.0478C175.482 12.2353 177.106 13.9118 178.235 16.147C179.365 18.3823 180 20.897 180 23.8309C180 26.7647 179.365 29.3492 178.235 31.5845C177.106 33.8198 175.482 35.4963 173.505 36.6838C171.458 37.9412 169.27 38.5 166.799 38.5C164.752 38.5 162.916 38.1507 161.363 37.3823C159.81 36.614 158.61 35.4963 157.763 34.1691V38.1507H146.962V0.5H157.763V13.5625C158.61 12.1654 159.81 11.1176 161.363 10.3493C162.916 9.58088 164.681 9.23161 166.799 9.23161C169.27 9.23161 171.529 9.86029 173.505 11.0478ZM163.905 29.8382C165.316 29.8382 166.516 29.2794 167.505 28.2316C168.493 27.1838 168.987 25.7169 168.987 23.761C168.987 21.9449 168.493 20.4779 167.505 19.4301C166.516 18.3823 165.316 17.8934 163.905 17.8934C162.493 17.8934 161.293 18.4522 160.304 19.5C159.316 20.5478 158.822 22.0147 158.822 23.8309C158.822 25.7169 159.316 27.1838 160.304 28.2316C161.293 29.2794 162.493 29.8382 163.905 29.8382ZM14.2622 1.61766L0 38.5H11.4239L13.5526 32.4725H27.3891L29.5178 38.5H41.0127L26.8215 1.61766H14.2622ZM16.249 24.5794L20.4354 12.668L24.6218 24.5794H16.249ZM58.1008 1.61766H47.8477V38.5H58.1008V1.61766ZM84.4767 1.61766C87.588 1.61766 90.2751 2.11995 92.4671 3.19629C94.6592 4.20086 96.3563 5.63596 97.4876 7.57335C98.5483 9.439 99.114 11.5199 99.114 13.9596C99.114 16.184 98.5483 18.1932 97.4876 20.0588C96.427 21.8527 94.8006 23.3596 92.6086 24.4359C90.4165 25.5122 87.7294 26.0863 84.5474 26.0863H79.1734V38.5H68.3545V1.61766H84.4767ZM79.1734 17.8344H83.4868C86.5274 17.8344 88.0123 16.5428 88.083 13.8879C88.083 11.2329 86.5274 9.86954 83.4868 9.86954H79.1734V17.8344ZM126.204 24.6371C126.204 26.2892 125.674 27.6539 124.691 28.5876C123.708 29.5214 122.347 30.0242 120.684 30.0242C119.02 30.0242 117.735 29.5214 116.676 28.5876C115.693 27.6539 115.164 26.2892 115.164 24.6371V10.5588H103.671V25.93C103.671 29.8087 104.805 32.8973 106.998 35.124C109.191 37.3507 112.291 38.4999 116.147 38.4999C119.928 38.4999 123.633 37.9253 126.204 35.4832V38.2126H137.848V10.5588H126.204V24.6371Z" fill="#333333"/>
</svg>
