<svg width="28" height="34" viewBox="0 0 28 34" fill="none" xmlns="http://www.w3.org/2000/svg">
<g id="AIPub_Symbol">
<g id="Group">
<path id="Vector" d="M27.9987 10.3568C28.0046 7.69972 27.0648 5.05146 25.3631 3.00253C24.9332 2.48292 24.4619 2.00169 23.949 1.56474C23.2197 0.909318 22.3955 0.395609 21.3372 0.410371C21.3194 0.410371 18.168 0.410371 18.1502 0.410371C17.6818 0.392657 17.3053 0.891604 17.3379 1.24293C17.3379 1.36398 17.3379 6.22059 17.3379 6.24126C17.3379 6.69592 17.7589 7.06496 18.171 7.0502C18.2095 7.0502 20.0713 7.0502 20.0713 7.0502C20.1691 7.16239 20.264 7.27458 20.3529 7.39267C20.4448 7.51962 20.5338 7.64953 20.6168 7.77943C20.6968 7.91524 20.7709 8.054 20.8421 8.19276C20.9073 8.33742 20.9725 8.48504 21.0289 8.63266C21.0822 8.78913 21.1326 8.94856 21.1771 9.10799C21.2156 9.27037 21.2512 9.4357 21.2779 9.60103C21.3016 9.76931 21.3194 9.94055 21.3283 10.1088C21.3342 10.2742 21.3342 10.4395 21.3283 10.6078C21.3164 10.779 21.2986 10.9473 21.2779 11.1156C21.2482 11.2809 21.2156 11.4462 21.1771 11.6086C21.1326 11.7651 21.0852 11.9216 21.0318 12.078C20.9755 12.2257 20.9132 12.3733 20.845 12.5179C20.7739 12.6597 20.6968 12.7984 20.6168 12.9342C20.5338 13.0671 20.4448 13.197 20.3529 13.3239C20.2581 13.4479 20.1573 13.569 20.0535 13.6841C20.0535 13.6841 20.0535 13.6841 20.0505 13.6871H18.171C17.7114 13.6871 17.3379 14.0591 17.3379 14.5167V19.4973C17.3379 19.9549 17.7114 20.3269 18.171 20.3269H21.3372C22.3896 20.3358 23.1901 19.8575 23.9016 19.1903C24.3581 18.8035 24.785 18.3784 25.1793 17.9267C26.8988 15.9574 27.9097 13.3889 27.9898 10.779C27.9957 10.6373 28.0016 10.4956 27.9987 10.3539V10.3568Z" fill="url(#paint0_linear_1295_1417)"/>
<path id="Vector_2" d="M23.9486 1.56432C23.7203 1.36061 23.4831 1.17461 23.2341 1.00928C23.3408 1.0949 23.4446 1.18347 23.5483 1.27499C24.0612 1.71194 24.5326 2.19612 24.9625 2.71278C26.6641 4.76466 27.601 7.40997 27.598 10.0671C27.598 10.2088 27.595 10.3505 27.5861 10.4922C27.5061 13.1021 26.4952 15.6677 24.7757 17.6399C24.3814 18.0916 23.9575 18.5138 23.4979 18.9035C22.7864 19.5707 21.986 20.049 20.9335 20.0401H17.7673C17.6725 20.0401 17.5835 20.0224 17.4976 19.9929C17.6488 20.1966 17.8919 20.3294 18.1646 20.3294H21.3308C22.3832 20.3354 23.1837 19.86 23.8952 19.1928C24.3517 18.806 24.7786 18.3809 25.1729 17.9292C26.8924 15.96 27.9034 13.3914 27.9834 10.7816C27.9893 10.6398 27.9953 10.4981 27.9953 10.3564C28.0012 7.6993 27.0614 5.05104 25.3597 3.00211C24.9298 2.4825 24.4585 2.00127 23.9456 1.56432H23.9486Z" fill="#007FFF"/>
<path id="Vector_3" d="M19.8308 6.75864H17.7703C17.6813 6.7616 17.5894 6.74388 17.5034 6.71436C17.6635 6.92399 17.9185 7.05685 18.1705 7.05095H20.071L19.8308 6.7616V6.75864Z" fill="#006FFF"/>
</g>
<g id="Group_2">
<path id="Vector_4" d="M14.0434 27.7589C14.0434 27.5758 13.9811 27.4075 13.8803 27.2688C13.7262 27.0562 13.4682 26.9293 13.2074 26.9322C12.5047 26.9411 11.3308 26.9322 10.7052 26.9322C10.6993 25.4413 10.6963 23.9503 10.6904 22.4624C10.8238 19.7314 9.47194 17.1009 7.35521 15.4535C7.32853 15.4328 7.30481 15.4122 7.27813 15.3915C7.20105 15.3324 7.121 15.2763 7.04096 15.2203C6.99056 15.1848 6.94016 15.1494 6.88976 15.1169C6.12489 14.6003 5.27701 14.2076 4.37281 13.9714C3.20771 13.6526 1.99518 13.685 0.800445 13.6998C0.355753 13.7175 0 14.0806 0 14.5294L0.017787 19.51C0.017787 19.8466 0.240134 20.1684 0.560312 20.2835C1.19474 20.4311 1.8766 20.257 2.51992 20.3632C3.32333 20.502 3.96962 21.2224 4.02594 22.0313C4.0467 24.1777 4.04077 26.324 4.05263 28.4704C3.88068 30.8264 5.63573 33.1203 7.98074 33.51C8.89088 33.6665 9.8188 33.5602 10.7378 33.5868L13.237 33.5809C13.6965 33.5809 14.0701 33.206 14.0671 32.7483L14.0493 27.7677L14.0434 27.7589Z" fill="url(#paint1_linear_1295_1417)"/>
<path id="Vector_5" style="mix-blend-mode:multiply" d="M14.0434 27.7581C14.0434 27.5751 13.9811 27.4068 13.8803 27.2681C13.7262 27.0555 13.4682 26.9285 13.2074 26.9315C12.5047 26.9403 11.3308 26.9315 10.7052 26.9315C10.6993 25.4405 10.6963 23.9496 10.6904 22.4616C10.8238 19.7307 9.47194 17.1002 7.35521 15.4528C7.32853 15.4321 7.30481 15.4114 7.27813 15.3908C7.20105 15.3317 7.121 15.2756 7.04096 15.2195C6.99056 15.1841 6.94016 15.1487 6.88976 15.1162C6.12489 14.5995 5.27701 14.2069 4.37281 13.9707C3.20771 13.6518 1.99518 13.6843 0.800445 13.6991C0.355753 13.7168 0 14.0799 0 14.5287L0.017787 19.5093C0.017787 19.8458 0.240134 20.1677 0.560312 20.2828C1.19474 20.4304 1.8766 20.2562 2.51992 20.3625C3.32333 20.5013 3.96962 21.2216 4.02594 22.0306C4.0467 24.1769 4.04077 26.3233 4.05263 28.4697C3.88068 30.8256 5.63573 33.1196 7.98074 33.5093C8.89088 33.6658 9.8188 33.5595 10.7378 33.5861L13.237 33.5802C13.6965 33.5802 14.0701 33.2052 14.0671 32.7476L14.0493 27.767L14.0434 27.7581Z" fill="url(#paint2_linear_1295_1417)"/>
<path id="Vector_6" d="M13.8814 27.2705C13.7895 27.1436 13.6561 27.0521 13.5108 26.996C13.6086 27.1318 13.665 27.2942 13.6679 27.4743L13.6857 32.4549C13.6857 32.9125 13.3151 33.2874 12.8556 33.2874L10.3565 33.2963C9.43742 33.2697 8.5095 33.376 7.59936 33.2195C6.94122 33.1103 6.33051 32.8475 5.79688 32.4785C6.41648 33.0011 7.15763 33.3701 7.97883 33.5059C8.88897 33.6624 9.81689 33.5561 10.7359 33.5827L13.2351 33.5768C13.6946 33.5768 14.0681 33.2018 14.0652 32.7442L14.0474 27.7636C14.0474 27.5805 13.9851 27.4123 13.8843 27.2735L13.8814 27.2705Z" fill="#1541FF"/>
<path id="Vector_7" style="mix-blend-mode:multiply" d="M10.7066 26.9314C10.7006 25.5349 10.6977 23.855 10.6917 22.4615C10.8252 19.7306 9.47329 17.1 7.35656 15.4526C7.32987 15.432 7.30616 15.4113 7.27651 15.3906C7.20536 15.3375 7.13124 15.2843 7.05713 15.2312C9.12643 16.8845 10.4427 19.4767 10.3123 22.1751C10.3182 23.6661 10.3212 25.4434 10.3271 26.9343H10.7036L10.7066 26.9314Z" fill="#1541FF"/>
</g>
<path id="Vector_8" d="M0.180176 19.9902C0.27505 20.1201 0.405502 20.2235 0.559673 20.2796C1.19415 20.4272 1.87606 20.253 2.51942 20.3593C2.71807 20.3947 2.90485 20.4626 3.07681 20.5601C2.81887 20.3121 2.49867 20.132 2.14289 20.0729C1.49952 19.9666 0.817614 20.1408 0.183141 19.9932L0.180176 19.9902Z" fill="url(#paint3_linear_1295_1417)"/>
<path id="Vector_9" d="M13.1659 0.408004H10.6667C9.79805 0.434576 8.92052 0.348957 8.05486 0.470003C8.04596 0.470003 8.04003 0.470003 8.03114 0.472955C8.02521 0.472955 8.01928 0.472955 8.01335 0.472955C8.00742 0.472955 7.99853 0.472956 7.9926 0.475908C7.98074 0.475908 7.97185 0.478861 7.95999 0.481813C5.57347 0.862666 3.81249 3.18026 3.99926 5.5628C3.99333 7.70326 4.00816 9.84371 3.99334 11.9812C3.95776 12.4565 3.72948 12.9112 3.37076 13.2241C3.18399 13.3836 2.97054 13.5105 2.7393 13.5902C2.62961 13.6257 2.51696 13.6522 2.4043 13.667C2.39837 13.667 2.38948 13.667 2.38355 13.67C1.85881 13.7024 1.33408 13.6759 0.809338 13.6847C0.361682 13.6965 0 14.0626 0 14.5114V19.492C0 19.9496 0.37354 20.3216 0.830091 20.3216C1.67797 20.3157 2.53178 20.3629 3.37373 20.233C3.39448 20.233 3.41523 20.2271 3.43599 20.2242C3.45081 20.2242 3.46267 20.2212 3.47749 20.2183C3.49824 20.2153 3.519 20.2124 3.53975 20.2094C3.54864 20.2094 3.55754 20.2094 3.5694 20.2035C3.57533 20.2035 3.58422 20.2035 3.59015 20.2005C3.66723 20.1887 3.74727 20.174 3.82435 20.1563C3.83917 20.1563 3.854 20.1504 3.86882 20.1474C3.87475 20.1474 3.88068 20.1445 3.88957 20.1415C5.0013 19.9142 6.0656 19.4595 6.99352 18.8129C8.76636 17.6025 10.0411 15.6953 10.4829 13.602C10.6578 12.8256 10.6785 12.0284 10.6667 11.2372C10.6667 9.84076 10.6667 8.44725 10.6667 7.05079C10.7319 7.04488 13.0265 7.03603 13.1688 7.04193C13.6283 7.04193 14.0019 6.66993 14.0019 6.21232V1.23171C14.0019 0.774095 13.6283 0.4021 13.1688 0.4021L13.1659 0.408004Z" fill="url(#paint4_linear_1295_1417)"/>
<g id="Vector_10">
<path d="M13.1659 0.407998H10.6667C9.79805 0.434569 8.92053 0.348951 8.05486 0.469997C8.02225 0.47295 7.9926 0.478854 7.95999 0.484759C5.57348 0.865612 3.81249 3.18321 3.99926 5.56575C3.99334 7.7062 4.00816 9.84666 3.99334 11.9842C3.9459 12.7104 3.43006 13.3629 2.7393 13.5932C2.62961 13.6286 2.51696 13.6552 2.4043 13.6699C2.39837 13.6699 2.38948 13.6699 2.38355 13.6729C1.85881 13.7054 1.33408 13.6788 0.809339 13.6877C0.361682 13.6995 0 14.0656 0 14.5143V19.4949C0 19.9525 0.37354 20.3245 0.830091 20.3245C1.67797 20.3186 2.53178 20.3659 3.37373 20.236C3.43006 20.2301 3.48342 20.2212 3.53975 20.2124C3.54864 20.2124 3.55754 20.2124 3.5694 20.2064C3.57533 20.2064 3.58422 20.2064 3.59015 20.2035C3.68205 20.1887 3.77396 20.171 3.86586 20.1504C3.87179 20.1504 3.87772 20.1474 3.88661 20.1444C4.99834 19.9171 6.06264 19.4625 6.99056 18.8159C8.7634 17.6054 10.0382 15.6982 10.4799 13.605C10.6548 12.8285 10.6756 12.0314 10.6637 11.2402C10.6637 9.8437 10.6637 8.4502 10.6637 7.05374C10.7289 7.04783 13.0236 7.03897 13.1659 7.04488C13.6254 7.04488 13.9989 6.67288 13.9989 6.21527V1.23466C13.9989 0.777042 13.6254 0.405045 13.1659 0.405045V0.407998Z" fill="url(#paint5_linear_1295_1417)" style="mix-blend-mode:plus-darker"/>
</g>
<path id="Vector_11" style="mix-blend-mode:multiply" opacity="0.45" d="M13.4431 0.458008C13.5439 0.593816 13.6061 0.7621 13.6061 0.945146V5.92576C13.6061 6.38337 13.2326 6.75537 12.7731 6.75537C12.6278 6.74946 10.3362 6.75537 10.271 6.76422C10.271 8.16068 10.271 9.55419 10.271 10.9507C10.2828 11.7419 10.2621 12.539 10.0871 13.3155C9.64542 15.4117 8.37064 17.3159 6.5978 18.5264C5.66987 19.1729 4.60558 19.6276 3.49385 19.8549C3.49385 19.8549 3.48199 19.8579 3.47309 19.8608C3.45827 19.8608 3.44345 19.8667 3.42862 19.8697C3.35154 19.8874 3.27446 19.9022 3.19442 19.914C3.18849 19.914 3.1796 19.914 3.17367 19.9169C3.16477 19.9169 3.15588 19.9169 3.14402 19.9228C3.12327 19.9228 3.10252 19.9287 3.08176 19.9317C3.06694 19.9317 3.05508 19.9346 3.04026 19.9376C3.01951 19.9376 2.99876 19.9435 2.978 19.9465C2.13605 20.0764 1.28224 20.0321 0.434365 20.035C0.339497 20.035 0.250559 20.0144 0.167549 19.9878C0.167549 19.9878 0.164586 19.9878 0.161621 19.9878C0.312816 20.1945 0.555913 20.3303 0.831622 20.3303C1.6795 20.3244 2.53331 20.3716 3.37526 20.2417C3.39601 20.2417 3.41677 20.2358 3.43752 20.2328C3.45234 20.2328 3.4642 20.2299 3.47902 20.2269C3.49977 20.224 3.52053 20.221 3.54128 20.2181C3.55017 20.2181 3.55907 20.2181 3.57093 20.2122C3.57686 20.2122 3.58575 20.2122 3.59168 20.2092C3.66876 20.1974 3.7488 20.1826 3.82588 20.1649C3.8407 20.1649 3.85553 20.159 3.87035 20.1561C3.87628 20.1561 3.88221 20.1531 3.8911 20.1502C5.00283 19.9228 6.06713 19.4682 6.99505 18.8216C8.76789 17.6111 10.0427 15.7039 10.4844 13.6107C10.6593 12.8343 10.6801 12.0371 10.6682 11.2459C10.6682 9.84943 10.6682 8.45592 10.6682 7.05946C10.7334 7.05355 13.028 7.0447 13.1703 7.0506C13.6299 7.0506 14.0034 6.67861 14.0034 6.22099V1.24038C14.0034 0.877242 13.7692 0.57315 13.4431 0.460961V0.458008Z" fill="url(#paint6_linear_1295_1417)"/>
</g>
<defs>
<linearGradient id="paint0_linear_1295_1417" x1="16.5345" y1="2.48292" x2="26.1673" y2="19.9828" gradientUnits="userSpaceOnUse">
<stop offset="0.2" stop-color="#008AFF"/>
<stop offset="1" stop-color="#00A5FF"/>
</linearGradient>
<linearGradient id="paint1_linear_1295_1417" x1="2.85789" y1="8.3029" x2="9.94173" y2="34.5582" gradientUnits="userSpaceOnUse">
<stop offset="0.14" stop-color="#1739F4"/>
<stop offset="1" stop-color="#2D76FF"/>
</linearGradient>
<linearGradient id="paint2_linear_1295_1417" x1="7.03206" y1="24.4987" x2="6.99972" y2="14.8446" gradientUnits="userSpaceOnUse">
<stop offset="0.07" stop-color="#3652FF" stop-opacity="0"/>
<stop offset="1" stop-color="#2F48E0"/>
</linearGradient>
<linearGradient id="paint3_linear_1295_1417" x1="1.45505" y1="19.6448" x2="1.79338" y2="20.9033" gradientUnits="userSpaceOnUse">
<stop offset="0.14" stop-color="#3652FF"/>
<stop offset="1" stop-color="#2C78FF"/>
</linearGradient>
<linearGradient id="paint4_linear_1295_1417" x1="2.66815" y1="-6.11078" x2="8.95454" y2="18.0109" gradientUnits="userSpaceOnUse">
<stop offset="0.02" stop-color="#FF9230"/>
<stop offset="0.84" stop-color="#FFB83F"/>
</linearGradient>
<linearGradient id="paint5_linear_1295_1417" x1="9.85142" y1="17.446" x2="2.39845" y2="-1.18993" gradientUnits="userSpaceOnUse">
<stop offset="0.15" stop-color="#FAFAFA"/>
<stop offset="0.85" stop-color="#E8E8E8"/>
</linearGradient>
<linearGradient id="paint6_linear_1295_1417" x1="4.99098" y1="12.8992" x2="19.1347" y2="4.02192" gradientUnits="userSpaceOnUse">
<stop offset="0.02" stop-color="#FF9230"/>
<stop offset="0.84" stop-color="#FFB83F"/>
</linearGradient>
</defs>
</svg>
