<svg width="18" height="18" viewBox="0 0 18 18" fill="none" xmlns="http://www.w3.org/2000/svg">
<g clip-path="url(#clip0_7_733)">
<path d="M4.5 3V6H13.5V3H15.0052C15.4162 3 15.75 3.33375 15.75 3.74475V15.7552C15.75 16.1662 15.4162 16.5 15.0052 16.5H2.99475C2.58375 16.5 2.25 16.1662 2.25 15.7552V3.74475C2.25 3.33375 2.58375 3 2.99475 3H4.5ZM6.75 12.75H5.25V14.25H6.75V12.75ZM6.75 10.5H5.25V12H6.75V10.5ZM6.75 8.25H5.25V9.75H6.75V8.25ZM12 1.5V4.5H6V1.5H12Z" fill="white"/>
</g>
<defs>
<clipPath id="clip0_7_733">
<rect width="18" height="18" fill="white"/>
</clipPath>
</defs>
</svg>
