<svg width="18" height="18" viewBox="0 0 18 18" fill="none" xmlns="http://www.w3.org/2000/svg">
<path d="M4.5 15.25C4.5 15.5261 4.27614 15.75 4 15.75H2.75C2.47386 15.75 2.25 15.5261 2.25 15.25V14C2.25 13.7239 2.47386 13.5 2.75 13.5H4C4.27614 13.5 4.5 13.7239 4.5 14V15.25ZM4.5 10.25C4.5 9.97386 4.27614 9.75 4 9.75H2.75C2.47386 9.75 2.25 9.97386 2.25 10.25V11.5C2.25 11.7761 2.47386 12 2.75 12H4C4.27614 12 4.5 11.7761 4.5 11.5V10.25ZM4.5 6.5C4.5 6.22386 4.27614 6 4 6H2.75C2.47386 6 2.25 6.22386 2.25 6.5V7.75C2.25 8.02614 2.47386 8.25 2.75 8.25H4C4.27614 8.25 4.5 8.02614 4.5 7.75V6.5ZM6.5 6C6.22386 6 6 6.22386 6 6.5V7.75C6 8.02614 6.22386 8.25 6.5 8.25H15.25C15.5261 8.25 15.75 8.02614 15.75 7.75V6.5C15.75 6.22386 15.5261 6 15.25 6H6.5ZM6 11.5C6 11.7761 6.22386 12 6.5 12H15.25C15.5261 12 15.75 11.7761 15.75 11.5V10.25C15.75 9.97386 15.5261 9.75 15.25 9.75H6.5C6.22386 9.75 6 9.97386 6 10.25V11.5ZM6 15.25C6 15.5261 6.22386 15.75 6.5 15.75H15.25C15.5261 15.75 15.75 15.5261 15.75 15.25V14C15.75 13.7239 15.5261 13.5 15.25 13.5H6.5C6.22386 13.5 6 13.7239 6 14V15.25Z" fill="#333333"/>
<path d="M2.25 2.75C2.25 2.47386 2.47386 2.25 2.75 2.25H4C4.27614 2.25 4.5 2.47386 4.5 2.75V4C4.5 4.27614 4.27614 4.5 4 4.5H2.75C2.47386 4.5 2.25 4.27614 2.25 4V2.75Z" fill="#333333"/>
<path d="M6.5 4.5C6.22386 4.5 6 4.27614 6 4V2.75C6 2.47386 6.22386 2.25 6.5 2.25H15.25C15.5261 2.25 15.75 2.47386 15.75 2.75V4C15.75 4.27614 15.5261 4.5 15.25 4.5H6.5Z" fill="#333333"/>
</svg>
