<svg width="12" height="12" viewBox="0 0 12 12" fill="none" xmlns="http://www.w3.org/2000/svg">
<g clip-path="url(#clip0_1757_23096)">
<path d="M6 11.5C7.45869 11.5 8.85764 10.9205 9.88909 9.88909C10.9205 8.85764 11.5 7.45869 11.5 6C11.5 4.54131 10.9205 3.14236 9.88909 2.11091C8.85764 1.07946 7.45869 0.5 6 0.5C4.54131 0.5 3.14236 1.07946 2.11091 2.11091C1.07946 3.14236 0.5 4.54131 0.5 6C0.5 7.45869 1.07946 8.85764 2.11091 9.88909C3.14236 10.9205 4.54131 11.5 6 11.5V11.5ZM6.63938 5.02925L5.95187 8.26394C5.90375 8.49769 5.97181 8.63038 6.16088 8.63038C6.29425 8.63038 6.49569 8.58225 6.6325 8.46125L6.572 8.74725C6.37469 8.98513 5.9395 9.15837 5.56481 9.15837C5.0815 9.15837 4.87594 8.86825 5.00931 8.25156L5.51669 5.86731C5.56069 5.66588 5.52081 5.593 5.31938 5.54419L5.00931 5.4885L5.06569 5.22656L6.64006 5.02925H6.63938ZM6 4.28125C5.81766 4.28125 5.6428 4.20882 5.51386 4.07989C5.38493 3.95095 5.3125 3.77609 5.3125 3.59375C5.3125 3.41141 5.38493 3.23655 5.51386 3.10761C5.6428 2.97868 5.81766 2.90625 6 2.90625C6.18234 2.90625 6.3572 2.97868 6.48614 3.10761C6.61507 3.23655 6.6875 3.41141 6.6875 3.59375C6.6875 3.77609 6.61507 3.95095 6.48614 4.07989C6.3572 4.20882 6.18234 4.28125 6 4.28125V4.28125Z" fill="#FF0000"/>
</g>
<defs>
<clipPath id="clip0_1757_23096">
<rect width="12" height="12" fill="white"/>
</clipPath>
</defs>
</svg>
