<svg width="18" height="18" viewBox="0 0 18 18" fill="none" xmlns="http://www.w3.org/2000/svg">
<g id="Fill / 24 / bell">
<path id="Vector" d="M9 16.125C9.51149 16.125 10.002 15.9373 10.3637 15.6033C10.7254 15.2693 10.9286 14.8162 10.9286 14.3438H7.07143C7.07143 14.8162 7.27462 15.2693 7.63629 15.6033C7.99797 15.9373 8.48851 16.125 9 16.125ZM9.95946 2.85452C9.97292 2.73069 9.95813 2.60563 9.91604 2.4874C9.87395 2.36918 9.8055 2.26041 9.71509 2.16812C9.62469 2.07583 9.51435 2.00206 9.39118 1.95157C9.26801 1.90108 9.13475 1.875 9 1.875C8.86525 1.875 8.73199 1.90108 8.60882 1.95157C8.48565 2.00206 8.37531 2.07583 8.28491 2.16812C8.19451 2.26041 8.12605 2.36918 8.08396 2.4874C8.04187 2.60563 8.02708 2.73069 8.04054 2.85452C6.95062 3.05927 5.97081 3.6056 5.26702 4.40101C4.56323 5.19642 4.17871 6.19202 4.17857 7.21924C4.17857 8.19709 3.69643 12.5627 2.25 13.4533H15.75C14.3036 12.5627 13.8214 8.19709 13.8214 7.21924C13.8214 5.06404 12.1629 3.26508 9.95946 2.85452Z" fill="#333333"/>
</g>
</svg>
