<svg width="8" height="10" viewBox="0 0 8 10" fill="none" xmlns="http://www.w3.org/2000/svg">
<g id="Vector">
<path d="M7.05248 1.27475C6.9317 1.12655 6.79993 0.994816 6.65719 0.868571C6.46503 0.692925 6.23993 0.550213 5.95444 0.555702C5.94346 0.555702 5.11444 0.555702 5.10346 0.555702C4.98268 0.550213 4.87836 0.687436 4.88934 0.780748C4.88934 0.813681 4.88934 2.11456 4.88934 2.12005C4.88934 2.2408 5.00464 2.3396 5.10895 2.33411C5.11993 2.33411 5.61405 2.33411 5.61405 2.33411C5.6415 2.36156 5.66346 2.39449 5.69091 2.42743C5.71287 2.46036 5.74032 2.49329 5.76229 2.53172C5.78425 2.57014 5.80072 2.60307 5.82268 2.64149C5.83915 2.67992 5.85562 2.71834 5.87209 2.75676C5.88856 2.80067 5.89954 2.8391 5.91052 2.88301C5.9215 2.92692 5.93248 2.97083 5.93797 3.01474C5.94346 3.05865 5.94895 3.10256 5.95444 3.15196C5.95444 3.19588 5.95444 3.23979 5.95444 3.2837C5.94895 3.32761 5.94895 3.37701 5.93797 3.42092C5.93248 3.46483 5.9215 3.50875 5.91052 3.55266C5.89954 3.59657 5.88856 3.63499 5.87209 3.6789C5.85562 3.71732 5.83915 3.75575 5.82268 3.79417C5.80621 3.83259 5.78425 3.87101 5.76229 3.90395C5.74032 3.93688 5.71836 3.9753 5.69091 4.00824C5.66346 4.04117 5.63601 4.0741 5.60856 4.10704H5.10895C4.98817 4.10704 4.88934 4.20584 4.88934 4.3266V5.6604C4.88934 5.78116 4.98817 5.87996 5.10895 5.87996H5.95444C6.22895 5.88545 6.45405 5.75372 6.64072 5.57807C6.76699 5.46829 6.88229 5.35302 6.99209 5.22678C7.44229 4.69984 7.71131 4.01922 7.72778 3.32761C7.72778 3.28919 7.73327 3.25077 7.73327 3.21234C7.73327 2.52074 7.4917 1.81816 7.05248 1.27475Z" fill="white"/>
<path d="M3.78033 7.66936C3.7419 7.66936 3.127 7.66936 3.11053 7.66936C3.11053 7.26866 3.11053 6.87346 3.11053 6.47277C3.13798 5.94034 2.9568 5.42438 2.63837 5.00722C2.847 4.73827 2.98974 4.4254 3.06111 4.09606C3.15994 3.51973 3.08856 2.92692 3.11053 2.33961C3.127 2.33961 3.73641 2.33412 3.78033 2.33961C3.90111 2.33961 3.99994 2.24081 3.99994 2.12005V0.78075C3.99994 0.659994 3.90111 0.561193 3.78033 0.561193H3.11053C2.87994 0.566682 2.64386 0.544726 2.41327 0.57766H2.3968C2.39131 0.57766 2.39131 0.57766 2.38582 0.57766C1.74896 0.68195 1.28229 1.3022 1.3317 1.93891C1.3317 2.50976 1.3317 3.0861 1.3317 3.65695C1.32072 3.78319 1.26033 3.90395 1.16699 3.99177C1.11758 4.03568 1.06268 4.06862 0.996798 4.09057C0.969347 4.10155 0.936406 4.10704 0.908955 4.11253H0.903465C0.689347 4.14546 0.288562 4.01373 0.266602 4.33758V5.67138C0.266602 5.79214 0.365425 5.89094 0.48621 5.89094C0.601504 5.89094 0.711308 5.89094 0.826602 5.89094C0.854053 5.89094 0.876014 5.89094 0.903465 5.89643H0.908955C0.908955 5.89643 0.908955 5.89643 0.914445 5.89643H0.919935C0.925426 5.89643 0.925425 5.89643 0.930916 5.89643H0.936406C0.958367 5.90192 0.980328 5.90741 1.00229 5.9129C1.18896 5.97328 1.32621 6.14892 1.33719 6.34652C1.34268 6.92286 1.33719 7.49371 1.33719 8.07005C1.28778 8.70127 1.75445 9.31603 2.38033 9.42032H2.38582C2.3968 9.42032 2.40778 9.42581 2.41876 9.42581C2.64935 9.45875 2.88543 9.43679 3.11602 9.44228H3.78033C3.90111 9.44228 3.99994 9.34348 3.99994 9.22272V7.88891C3.99994 7.76816 3.90111 7.66936 3.78033 7.66936Z" fill="white"/>
</g>
</svg>
