<svg width="18" height="18" viewBox="0 0 18 18" fill="none" xmlns="http://www.w3.org/2000/svg">
<g clip-path="url(#clip0_7_736)">
<path d="M13.5 15.75V8.15625H12V2.25H16.5L15 6.46875H16.5L13.5 15.75ZM12 9.84375V15.75H3C2.175 15.75 1.5 14.9906 1.5 14.0625V11.5312C1.5 10.6031 2.175 9.84375 3 9.84375H12ZM5.25 12H3.75V13.5H5.25V12ZM10.5 2.25V8.15625H3C2.175 8.15625 1.5 7.39688 1.5 6.46875V3.9375C1.5 3.00937 2.175 2.25 3 2.25H10.5ZM5.25 4.5H3.75V6H5.25V4.5Z" fill="white"/>
</g>
<defs>
<clipPath id="clip0_7_736">
<rect width="18" height="18" fill="white"/>
</clipPath>
</defs>
</svg>
