<svg width="16" height="20" viewBox="0 0 16 20" fill="none" xmlns="http://www.w3.org/2000/svg">
<g clip-path="url(#clip0_3031_40927)">
<path d="M8.00033 17.3337C9.94525 17.3337 11.8105 16.561 13.1858 15.1858C14.561 13.8105 15.3337 11.9452 15.3337 10.0003C15.3337 8.0554 14.561 6.19014 13.1858 4.81488C11.8105 3.43961 9.94525 2.66699 8.00033 2.66699C6.0554 2.66699 4.19014 3.43961 2.81488 4.81488C1.43961 6.19014 0.666992 8.0554 0.666992 10.0003C0.666992 11.9452 1.43961 13.8105 2.81488 15.1858C4.19014 16.561 6.0554 17.3337 8.00033 17.3337V17.3337ZM8.85283 8.70599L7.93616 13.0189C7.87199 13.3306 7.96274 13.5075 8.21483 13.5075C8.39266 13.5075 8.66124 13.4433 8.84366 13.282L8.76299 13.6633C8.49991 13.9805 7.91966 14.2115 7.42008 14.2115C6.77566 14.2115 6.50158 13.8247 6.67941 13.0024L7.35591 9.82341C7.41458 9.55483 7.36141 9.45766 7.09283 9.39258L6.67941 9.31833L6.75458 8.96908L8.85374 8.70599H8.85283ZM8.00033 7.70866C7.75721 7.70866 7.52405 7.61208 7.35214 7.44017C7.18024 7.26826 7.08366 7.03511 7.08366 6.79199C7.08366 6.54888 7.18024 6.31572 7.35214 6.14381C7.52405 5.9719 7.75721 5.87533 8.00033 5.87533C8.24344 5.87533 8.4766 5.9719 8.64851 6.14381C8.82041 6.31572 8.91699 6.54888 8.91699 6.79199C8.91699 7.03511 8.82041 7.26826 8.64851 7.44017C8.4766 7.61208 8.24344 7.70866 8.00033 7.70866V7.70866Z" fill="#4B82FF"/>
</g>
<defs>
<clipPath id="clip0_3031_40927">
<rect width="16" height="16" fill="white" transform="translate(0 2)"/>
</clipPath>
</defs>
</svg>
