<svg width="16" height="16" viewBox="0 0 16 16" fill="none" xmlns="http://www.w3.org/2000/svg">
<path fill-rule="evenodd" clip-rule="evenodd" d="M0.666504 7.99984C0.666504 3.94975 3.94975 0.666504 7.99984 0.666504C12.0499 0.666504 15.3332 3.94975 15.3332 7.99984C15.3332 12.0499 12.0499 15.3332 7.99984 15.3332C3.94975 15.3332 0.666504 12.0499 0.666504 7.99984ZM10.5771 5.6516C10.8491 5.92362 10.8491 6.36465 10.5771 6.63667L9.09948 8.11426L10.5771 9.59185C10.8491 9.86387 10.8491 10.3049 10.5771 10.5769C10.3051 10.8489 9.86403 10.8489 9.59201 10.5769L8.11442 9.09932L6.63683 10.5769C6.36481 10.8489 5.92378 10.8489 5.65177 10.5769C5.37975 10.3049 5.37975 9.86387 5.65177 9.59185L7.12936 8.11426L5.65177 6.63667C5.37975 6.36465 5.37975 5.92362 5.65177 5.6516C5.92378 5.37959 6.36481 5.37959 6.63683 5.6516L8.11442 7.1292L9.59201 5.6516C9.86403 5.37959 10.3051 5.37959 10.5771 5.6516Z" fill="#B4B4BE"/>
</svg>
