<svg width="16" height="16" viewBox="0 0 16 16" fill="none" xmlns="http://www.w3.org/2000/svg">
<g id="solid/folder-open">
<path id="Vector" d="M1.44301 13.034C1.56701 13.2207 1.77567 13.3334 1.99967 13.3334H11.9997C12.2663 13.3334 12.5077 13.1747 12.6123 12.9294L14.6123 8.26269C14.6562 8.16131 14.6741 8.05062 14.6644 7.9406C14.6548 7.83058 14.6179 7.72469 14.5571 7.63248C14.4963 7.54027 14.4135 7.46465 14.3162 7.41242C14.2189 7.3602 14.1101 7.33303 13.9997 7.33335H13.333V5.33335C13.333 4.59802 12.735 4.00002 11.9997 4.00002H7.56301L5.85901 2.66669H2.66634C1.93101 2.66669 1.33301 3.26469 1.33301 4.00002V12.6667H1.33767C1.33619 12.7968 1.3728 12.9245 1.44301 13.034ZM11.9997 5.33335V7.33335H3.99967C3.73301 7.33335 3.49167 7.49202 3.38701 7.73735L2.66634 9.41935V5.33335H11.9997Z" fill="white"/>
</g>
</svg>
