<svg width="14" height="14" viewBox="0 0 14 14" fill="none" xmlns="http://www.w3.org/2000/svg">
<g clip-path="url(#clip0_3722_83718)">
<path d="M7.7863 1.37024C7.70691 1.21936 7.59245 1.094 7.45446 1.00683C7.31647 0.919653 7.15984 0.873749 7.00039 0.873749C6.84095 0.873749 6.68432 0.919653 6.54633 1.00683C6.40834 1.094 6.29388 1.21936 6.21449 1.37024L0.715577 11.5789C0.34909 12.2596 0.788554 13.125 1.50148 13.125H12.4985C13.2114 13.125 13.6517 12.2587 13.2844 11.5789L7.7863 1.37024ZM6.99879 4.37499C7.42783 4.37499 7.76384 4.77924 7.72054 5.24561L7.43986 8.31424C7.43043 8.43479 7.37988 8.54709 7.2982 8.62892C7.21653 8.71075 7.10968 8.75616 6.99879 8.75616C6.88791 8.75616 6.78106 8.71075 6.69938 8.62892C6.61771 8.54709 6.56715 8.43479 6.55772 8.31424L6.27704 5.24561C6.26696 5.13557 6.27812 5.02444 6.3098 4.91938C6.34148 4.81433 6.39297 4.71768 6.46096 4.63566C6.52896 4.55364 6.61194 4.48807 6.70458 4.44318C6.79721 4.39828 6.89743 4.37505 6.99879 4.37499ZM7.00039 9.62499C7.21308 9.62499 7.41706 9.71718 7.56745 9.88127C7.71785 10.0454 7.80234 10.2679 7.80234 10.5C7.80234 10.7321 7.71785 10.9546 7.56745 11.1187C7.41706 11.2828 7.21308 11.375 7.00039 11.375C6.78771 11.375 6.58373 11.2828 6.43334 11.1187C6.28294 10.9546 6.19845 10.7321 6.19845 10.5C6.19845 10.2679 6.28294 10.0454 6.43334 9.88127C6.58373 9.71718 6.78771 9.62499 7.00039 9.62499Z" fill="#FF0000"/>
</g>
<defs>
<clipPath id="clip0_3722_83718">
<rect width="14" height="14" fill="white"/>
</clipPath>
</defs>
</svg>
