<svg width="16" height="16" viewBox="0 0 16 16" fill="none" xmlns="http://www.w3.org/2000/svg">
<rect x="0.5" y="0.5" width="15" height="15" rx="2.5" fill="white"/>
<rect x="0.5" y="0.5" width="15" height="15" rx="2.5" stroke="#B4B4BE"/>
<path fill-rule="evenodd" clip-rule="evenodd" d="M4.84012 6.83333C4.33002 6.83333 3.9165 7.24684 3.9165 7.75694C3.9165 8.26704 4.33002 8.68055 4.84012 8.68055C5.35021 8.68055 5.76373 8.26704 5.76373 7.75694C5.76373 7.24684 5.35021 6.83333 4.84012 6.83333ZM7.02761 7.75694C7.02761 7.24684 7.44113 6.83333 7.95122 6.83333C8.46132 6.83333 8.87483 7.24684 8.87483 7.75694C8.87483 8.26704 8.46132 8.68055 7.95122 8.68055C7.44113 8.68055 7.02761 8.26704 7.02761 7.75694ZM10.1387 7.75694C10.1387 7.24684 10.5522 6.83333 11.0623 6.83333C11.5724 6.83333 11.9859 7.24684 11.9859 7.75694C11.9859 8.26704 11.5724 8.68055 11.0623 8.68055C10.5522 8.68055 10.1387 8.26704 10.1387 7.75694Z" fill="#333333"/>
</svg>
