<svg width="18" height="18" viewBox="0 0 18 18" fill="none" xmlns="http://www.w3.org/2000/svg">
<path d="M2.25 4.5H3.75H15.75" stroke="#333333" stroke-linecap="round" stroke-linejoin="round"/>
<path d="M14.75 4.5C14.75 4.22386 14.5261 4 14.25 4C13.9739 4 13.75 4.22386 13.75 4.5H14.75ZM4.25 4.5C4.25 4.22386 4.02614 4 3.75 4C3.47386 4 3.25 4.22386 3.25 4.5H4.25ZM5.5 4.5C5.5 4.77614 5.72386 5 6 5C6.27614 5 6.5 4.77614 6.5 4.5H5.5ZM11.5 4.5C11.5 4.77614 11.7239 5 12 5C12.2761 5 12.5 4.77614 12.5 4.5H11.5ZM13.75 4.5V15H14.75V4.5H13.75ZM13.75 15C13.75 15.5523 13.3023 16 12.75 16V17C13.8546 17 14.75 16.1046 14.75 15H13.75ZM12.75 16H5.25V17H12.75V16ZM5.25 16C4.69772 16 4.25 15.5523 4.25 15H3.25C3.25 16.1046 4.14543 17 5.25 17V16ZM4.25 15V4.5H3.25V15H4.25ZM6.5 4.5V3H5.5V4.5H6.5ZM6.5 3C6.5 2.44772 6.94772 2 7.5 2V1C6.39543 1 5.5 1.89543 5.5 3H6.5ZM7.5 2H10.5V1H7.5V2ZM10.5 2C11.0523 2 11.5 2.44772 11.5 3H12.5C12.5 1.89543 11.6046 1 10.5 1V2ZM11.5 3V4.5H12.5V3H11.5Z" fill="#333333"/>
<path d="M7.5 8.25V12.75" stroke="#333333" stroke-linecap="round" stroke-linejoin="round"/>
<path d="M10.5 8.25V12.75" stroke="#333333" stroke-linecap="round" stroke-linejoin="round"/>
</svg>
