<svg width="18" height="18" viewBox="0 0 18 18" fill="none" xmlns="http://www.w3.org/2000/svg">
<rect width="18" height="18" rx="6" fill="#FFDB20"/>
<path d="M6.21881 9.37478C6.08175 9.24358 5.90315 9.1724 5.71883 9.17551C5.53452 9.17861 5.35812 9.25579 5.22503 9.39154C5.09194 9.52729 5.012 9.71159 5.00125 9.90746C4.99049 10.1033 5.04971 10.2963 5.16703 10.4476L6.78853 12.259C6.85641 12.3348 6.93799 12.3952 7.02836 12.4366C7.11873 12.478 7.21603 12.4996 7.31441 12.5C7.41228 12.5006 7.50926 12.4803 7.5996 12.4402C7.68994 12.4001 7.7718 12.3412 7.8403 12.2668L12.7924 6.82486C12.8596 6.75136 12.9125 6.66449 12.9481 6.56924C12.9837 6.47398 13.0013 6.37219 12.9999 6.26968C12.9986 6.16717 12.9783 6.06595 12.9401 5.97179C12.902 5.87764 12.8469 5.7924 12.7778 5.72093C12.7088 5.64947 12.6271 5.59318 12.5377 5.55529C12.4482 5.51739 12.3525 5.49863 12.2562 5.50008C12.1599 5.50152 12.0648 5.52314 11.9763 5.5637C11.8879 5.60427 11.8078 5.66298 11.7406 5.73648L7.32172 10.6031L6.21881 9.37478Z" fill="#1A1A1A"/>
</svg>
