<svg width="14" height="14" viewBox="0 0 14 14" fill="none" xmlns="http://www.w3.org/2000/svg">
<rect x="0.5" y="0.5" width="13" height="13" rx="2.5" fill="white"/>
<rect x="0.5" y="0.5" width="13" height="13" rx="2.5" stroke="#B4B4BE"/>
<path fill-rule="evenodd" clip-rule="evenodd" d="M4.29118 6C3.85395 6 3.49951 6.35444 3.49951 6.79167C3.49951 7.22889 3.85395 7.58333 4.29118 7.58333C4.7284 7.58333 5.08285 7.22889 5.08285 6.79167C5.08285 6.35444 4.7284 6 4.29118 6ZM6.16618 6.79167C6.16618 6.35444 6.52062 6 6.95784 6C7.39507 6 7.74951 6.35444 7.74951 6.79167C7.74951 7.22889 7.39507 7.58333 6.95784 7.58333C6.52062 7.58333 6.16618 7.22889 6.16618 6.79167ZM8.83284 6.79167C8.83284 6.35444 9.18728 6 9.62451 6C10.0617 6 10.4162 6.35444 10.4162 6.79167C10.4162 7.22889 10.0617 7.58333 9.62451 7.58333C9.18728 7.58333 8.83284 7.22889 8.83284 6.79167Z" fill="#333333"/>
</svg>
