<svg width="18" height="18" viewBox="0 0 18 18" fill="none" xmlns="http://www.w3.org/2000/svg">
<g clip-path="url(#clip0_2037_12424)">
<path fill-rule="evenodd" clip-rule="evenodd" d="M3 1.5C2.17157 1.5 1.5 2.17157 1.5 3L1.5 15C1.5 15.8284 2.17157 16.5 3 16.5H15C15.8284 16.5 16.5 15.8284 16.5 15V3C16.5 2.17157 15.8284 1.5 15 1.5L3 1.5ZM11.625 6.375C11.8321 6.375 12 6.20711 12 6V4.5C12 4.29289 11.8321 4.125 11.625 4.125L4.875 4.125C4.66789 4.125 4.5 4.29289 4.5 4.5V6C4.5 6.20711 4.66789 6.375 4.875 6.375L11.625 6.375ZM9 9.75C9 9.95711 8.83211 10.125 8.625 10.125H4.875C4.66789 10.125 4.5 9.95711 4.5 9.75V8.25C4.5 8.04289 4.66789 7.875 4.875 7.875H8.625C8.83211 7.875 9 8.04289 9 8.25V9.75ZM13.125 13.875C13.3321 13.875 13.5 13.7071 13.5 13.5V12C13.5 11.7929 13.3321 11.625 13.125 11.625L4.875 11.625C4.66789 11.625 4.5 11.7929 4.5 12V13.5C4.5 13.7071 4.66789 13.875 4.875 13.875L13.125 13.875Z" fill="white"/>
</g>
<defs>
<clipPath id="clip0_2037_12424">
<rect width="18" height="18" fill="white"/>
</clipPath>
</defs>
</svg>