<svg width="18" height="18" viewBox="0 0 18 18" fill="none" xmlns="http://www.w3.org/2000/svg">
<g clip-path="url(#clip0_7_723)">
<path d="M7.49969 12.2247C7.49969 12.1005 7.39896 11.9997 7.27469 11.9997L6.22469 11.9997C6.10043 11.9997 5.99969 12.1005 5.99969 12.2247L5.9997 14.1822C4.2072 13.1472 2.99969 11.2122 2.99969 8.99972C2.99969 6.20972 4.91969 3.86222 7.49969 3.19472V1.64972C4.07969 2.34722 1.49969 5.36972 1.49969 8.99972C1.49969 11.4522 2.6847 13.6347 4.5072 14.9997H3.22469C3.10043 14.9997 2.9997 15.1005 2.9997 15.2247V16.2747C2.9997 16.399 3.10043 16.4997 3.2247 16.4997H7.2747C7.39896 16.4997 7.49969 16.399 7.49969 16.2747V12.2247Z" fill="#333333"/>
<path d="M8.99969 10.4997C9.82969 10.4997 10.4997 9.82972 10.4997 8.99972C10.4997 8.16972 9.82969 7.49972 8.99969 7.49972C8.16969 7.49972 7.49969 8.16972 7.49969 8.99972C7.49969 9.82972 8.16969 10.4997 8.99969 10.4997Z" fill="#333333"/>
<path d="M10.7247 6.0003C10.6004 6.0003 10.4997 5.89957 10.4997 5.7753V1.7253C10.4997 1.60104 10.6004 1.50031 10.7247 1.50031L14.7747 1.50031C14.899 1.50031 14.9997 1.60104 14.9997 1.7253V2.77531C14.9997 2.89957 14.899 3.00031 14.7747 3.00031H13.4922C15.3147 4.3653 16.4997 6.5478 16.4997 9.0003C16.4997 12.6303 13.9197 15.6528 10.4997 16.3503V14.8053C13.0797 14.1378 14.9997 11.7903 14.9997 9.0003C14.9997 6.7878 13.7922 4.85281 11.9997 3.81781V5.7753C11.9997 5.89957 11.899 6.0003 11.7747 6.0003H10.7247Z" fill="#333333"/>
</g>
<defs>
<clipPath id="clip0_7_723">
<rect width="18" height="18" fill="white"/>
</clipPath>
</defs>
</svg>
