<svg width="18" height="18" viewBox="0 0 18 18" fill="none" xmlns="http://www.w3.org/2000/svg">
<g clip-path="url(#clip0_7_717)">
<path d="M12.75 5.75C12.75 5.47386 12.9739 5.25 13.25 5.25H15.25C15.5261 5.25 15.75 5.47386 15.75 5.75V15.25C15.75 15.5261 15.5261 15.75 15.25 15.75H13.25C12.9739 15.75 12.75 15.5261 12.75 15.25V5.75ZM2.25 10.25C2.25 9.97386 2.47386 9.75 2.75 9.75H4.75C5.02614 9.75 5.25 9.97386 5.25 10.25V15.25C5.25 15.5261 5.02614 15.75 4.75 15.75H2.75C2.47386 15.75 2.25 15.5261 2.25 15.25V10.25ZM7.5 2.75C7.5 2.47386 7.72386 2.25 8 2.25H10C10.2761 2.25 10.5 2.47386 10.5 2.75V15.25C10.5 15.5261 10.2761 15.75 10 15.75H8C7.72386 15.75 7.5 15.5261 7.5 15.25V2.75Z" fill="#333333"/>
</g>
<defs>
<clipPath id="clip0_7_717">
<rect width="18" height="18" fill="white"/>
</clipPath>
</defs>
</svg>
