<svg width="18" height="18" viewBox="0 0 18 18" fill="none" xmlns="http://www.w3.org/2000/svg">
<g clip-path="url(#clip0_5_327)">
<path d="M2.25 1.5H15.75C15.9489 1.5 16.1397 1.57902 16.2803 1.71967C16.421 1.86032 16.5 2.05109 16.5 2.25V15.75C16.5 15.9489 16.421 16.1397 16.2803 16.2803C16.1397 16.421 15.9489 16.5 15.75 16.5H2.25C2.05109 16.5 1.86032 16.421 1.71967 16.2803C1.57902 16.1397 1.5 15.9489 1.5 15.75V2.25C1.5 2.05109 1.57902 1.86032 1.71967 1.71967C1.86032 1.57902 2.05109 1.5 2.25 1.5ZM9 11.25V12.75H13.5V11.25H9ZM6.3105 9L4.1895 11.121L5.25 12.1823L8.43225 9L5.25 5.81775L4.1895 6.879L6.3105 9Z" fill="white"/>
</g>
<defs>
<clipPath id="clip0_5_327">
<rect width="18" height="18" fill="white"/>
</clipPath>
</defs>
</svg>
