<svg width="14" height="14" viewBox="0 0 14 14" fill="none" xmlns="http://www.w3.org/2000/svg">
<g clip-path="url(#clip0_650_13188)">
<path d="M7.78679 1.37027C7.7074 1.21939 7.59294 1.09403 7.45495 1.00686C7.31696 0.919684 7.16033 0.873779 7.00088 0.873779C6.84143 0.873779 6.68481 0.919684 6.54682 1.00686C6.40883 1.09403 6.29436 1.21939 6.21498 1.37027L0.716066 11.5789C0.349578 12.2596 0.789042 13.125 1.50197 13.125H12.499C13.2119 13.125 13.6522 12.2588 13.2849 11.5789L7.78679 1.37027ZM6.99928 4.37502C7.42832 4.37502 7.76433 4.77927 7.72103 5.24564L7.44035 8.31427C7.43092 8.43482 7.38036 8.54712 7.29869 8.62895C7.21701 8.71078 7.11017 8.75619 6.99928 8.75619C6.88839 8.75619 6.78155 8.71078 6.69987 8.62895C6.6182 8.54712 6.56764 8.43482 6.55821 8.31427L6.27753 5.24564C6.26745 5.1356 6.27861 5.02447 6.31029 4.91941C6.34196 4.81436 6.39346 4.71771 6.46145 4.63569C6.52945 4.55367 6.61243 4.4881 6.70506 4.44321C6.7977 4.39831 6.89792 4.37508 6.99928 4.37502ZM7.00088 9.62502C7.21357 9.62502 7.41755 9.71721 7.56794 9.8813C7.71833 10.0454 7.80282 10.268 7.80282 10.5C7.80282 10.7321 7.71833 10.9546 7.56794 11.1187C7.41755 11.2828 7.21357 11.375 7.00088 11.375C6.7882 11.375 6.58422 11.2828 6.43383 11.1187C6.28343 10.9546 6.19894 10.7321 6.19894 10.5C6.19894 10.268 6.28343 10.0454 6.43383 9.8813C6.58422 9.71721 6.7882 9.62502 7.00088 9.62502Z" fill="white"/>
</g>
<defs>
<clipPath id="clip0_650_13188">
<rect width="14" height="14" fill="white"/>
</clipPath>
</defs>
</svg>
