<svg width="18" height="18" viewBox="0 0 18 18" fill="none" xmlns="http://www.w3.org/2000/svg">
<g clip-path="url(#clip0_5_336)">
<path d="M15.25 2.625L14 1.5L12.75 2.625L11.5 1.5L10.25 2.625L9 1.5L7.75 2.625L6.5 1.5L5.25 2.625L4 1.5V12H1.5V14.25C1.5 15.495 2.61667 16.5 4 16.5H14C15.3833 16.5 16.5 15.495 16.5 14.25V1.5L15.25 2.625ZM14.8333 14.25C14.8333 14.6625 14.4583 15 14 15C13.5417 15 13.1667 14.6625 13.1667 14.25V12H5.66667V3.75H14.8333V14.25Z" fill="white"/>
<path d="M11.25 5.25H6.75V6.75H11.25V5.25Z" fill="white"/>
<path d="M13.5 5.25H12V6.75H13.5V5.25Z" fill="white"/>
<path d="M11.25 7.5H6.75V9H11.25V7.5Z" fill="white"/>
<path d="M13.5 7.5H12V9H13.5V7.5Z" fill="white"/>
</g>
<defs>
<clipPath id="clip0_5_336">
<rect width="18" height="18" fill="white"/>
</clipPath>
</defs>
</svg>
