<svg width="16" height="16" viewBox="0 0 16 16" fill="none" xmlns="http://www.w3.org/2000/svg">
<g id="Fill /  info-circle" clip-path="url(#clip0_1213_32289)">
<path id="Vector" d="M8.0013 15.3337C9.94622 15.3337 11.8115 14.561 13.1868 13.1858C14.562 11.8105 15.3346 9.94525 15.3346 8.00033C15.3346 6.0554 14.562 4.19014 13.1868 2.81488C11.8115 1.43961 9.94622 0.666992 8.0013 0.666992C6.05638 0.666992 4.19112 1.43961 2.81585 2.81488C1.44059 4.19014 0.667969 6.0554 0.667969 8.00033C0.667969 9.94525 1.44059 11.8105 2.81585 13.1858C4.19112 14.561 6.05638 15.3337 8.0013 15.3337ZM8.8538 6.70599L7.93713 11.0189C7.87297 11.3306 7.96372 11.5075 8.2158 11.5075C8.39364 11.5075 8.66222 11.4433 8.84464 11.282L8.76397 11.6633C8.50089 11.9805 7.92064 12.2115 7.42105 12.2115C6.77664 12.2115 6.50255 11.8247 6.68039 11.0024L7.35688 7.82341C7.41555 7.55483 7.36239 7.45766 7.0938 7.39258L6.68039 7.31833L6.75555 6.96908L8.85472 6.70599H8.8538ZM8.0013 5.70866C7.75819 5.70866 7.52503 5.61208 7.35312 5.44017C7.18121 5.26826 7.08464 5.03511 7.08464 4.79199C7.08464 4.54888 7.18121 4.31572 7.35312 4.14381C7.52503 3.9719 7.75819 3.87533 8.0013 3.87533C8.24442 3.87533 8.47757 3.9719 8.64948 4.14381C8.82139 4.31572 8.91797 4.54888 8.91797 4.79199C8.91797 5.03511 8.82139 5.26826 8.64948 5.44017C8.47757 5.61208 8.24442 5.70866 8.0013 5.70866Z" fill="#D5D5DA"/>
</g>
<defs>
<clipPath id="clip0_1213_32289">
<rect width="16" height="16" fill="white"/>
</clipPath>
</defs>
</svg>
