<svg width="18" height="18" viewBox="0 0 18 18" fill="none" xmlns="http://www.w3.org/2000/svg">
<g clip-path="url(#clip0_1589_1120)">
<path d="M4.5 4.125C4.29289 4.125 4.125 4.29289 4.125 4.5V6C4.125 6.20711 4.29289 6.375 4.5 6.375H11.25C11.4571 6.375 11.625 6.20711 11.625 6V4.5C11.625 4.29289 11.4571 4.125 11.25 4.125H4.5Z" fill="white"/>
<path d="M4.125 8.25C4.125 8.04289 4.29289 7.875 4.5 7.875H8.25C8.45711 7.875 8.625 8.04289 8.625 8.25V9.75C8.625 9.95711 8.45711 10.125 8.25 10.125H4.5C4.29289 10.125 4.125 9.95711 4.125 9.75V8.25Z" fill="white"/>
<path d="M4.5 11.625C4.29289 11.625 4.125 11.7929 4.125 12V13.5C4.125 13.7071 4.29289 13.875 4.5 13.875H12.75C12.9571 13.875 13.125 13.7071 13.125 13.5V12C13.125 11.7929 12.9571 11.625 12.75 11.625H4.5Z" fill="white"/>
<path fill-rule="evenodd" clip-rule="evenodd" d="M1.5 3C1.5 2.17157 2.17157 1.5 3 1.5H15C15.8284 1.5 16.5 2.17157 16.5 3V15C16.5 15.8284 15.8284 16.5 15 16.5H3C2.17157 16.5 1.5 15.8284 1.5 15V3ZM3 3H15V15H3V3Z" fill="white"/>
</g>
<defs>
<clipPath id="clip0_1589_1120">
<rect width="18" height="18" fill="white"/>
</clipPath>
</defs>
</svg>
