<svg width="10" height="10" viewBox="0 0 10 10" fill="none" xmlns="http://www.w3.org/2000/svg">
<g clip-path="url(#clip0_1782_13017)">
<path d="M2.5 0.833252C2.83152 0.833252 3.14946 0.964948 3.38388 1.19937C3.6183 1.43379 3.75 1.75173 3.75 2.08325V7.08325C3.75 7.41477 3.6183 7.73271 3.38388 7.96713C3.14946 8.20156 2.83152 8.33325 2.5 8.33325C2.16848 8.33325 1.85054 8.20156 1.61612 7.96713C1.3817 7.73271 1.25 7.41477 1.25 7.08325V2.08325C1.25 1.75173 1.3817 1.43379 1.61612 1.19937C1.85054 0.964948 2.16848 0.833252 2.5 0.833252ZM6.66667 0.833252C6.99819 0.833252 7.31613 0.964948 7.55055 1.19937C7.78497 1.43379 7.91667 1.75173 7.91667 2.08325V7.08325C7.91667 7.41477 7.78497 7.73271 7.55055 7.96713C7.31613 8.20156 6.99819 8.33325 6.66667 8.33325C6.33515 8.33325 6.0172 8.20156 5.78278 7.96713C5.54836 7.73271 5.41667 7.41477 5.41667 7.08325V2.08325C5.41667 1.75173 5.54836 1.43379 5.78278 1.19937C6.0172 0.964948 6.33515 0.833252 6.66667 0.833252Z" fill="white"/>
</g>
<defs>
<clipPath id="clip0_1782_13017">
<rect width="10" height="10" fill="white"/>
</clipPath>
</defs>
</svg>
