<svg width="16" height="16" viewBox="0 0 16 16" fill="none" xmlns="http://www.w3.org/2000/svg">
<g clip-path="url(#clip0_3722_83734)">
<path d="M8.00016 14.4167C9.70197 14.4167 11.3341 13.7406 12.5374 12.5373C13.7408 11.3339 14.4168 9.7018 14.4168 8C14.4168 6.29819 13.7408 4.66609 12.5374 3.46273C11.3341 2.25937 9.70197 1.58333 8.00016 1.58333C6.29836 1.58333 4.66625 2.25937 3.46289 3.46273C2.25954 4.66609 1.5835 6.29819 1.5835 8C1.5835 9.7018 2.25954 11.3339 3.46289 12.5373C4.66625 13.7406 6.29836 14.4167 8.00016 14.4167ZM8.7461 6.86745L7.94402 10.6413C7.88787 10.914 7.96728 11.0688 8.18785 11.0688C8.34345 11.0688 8.57847 11.0126 8.73808 10.8715L8.6675 11.2051C8.4373 11.4826 7.92958 11.6848 7.49244 11.6848C6.92858 11.6848 6.68876 11.3463 6.84436 10.6268L7.4363 7.84519C7.48763 7.61018 7.44111 7.52516 7.2061 7.46821L6.84436 7.40325L6.91013 7.09765L8.7469 6.86745H8.7461ZM8.00016 5.99479C7.78744 5.99479 7.58342 5.91028 7.433 5.75986C7.28258 5.60944 7.19808 5.40543 7.19808 5.1927C7.19808 4.97998 7.28258 4.77596 7.433 4.62554C7.58342 4.47513 7.78744 4.39062 8.00016 4.39062C8.21289 4.39062 8.4169 4.47513 8.56732 4.62554C8.71774 4.77596 8.80225 4.97998 8.80225 5.1927C8.80225 5.40543 8.71774 5.60944 8.56732 5.75986C8.4169 5.91028 8.21289 5.99479 8.00016 5.99479Z" fill="#FF0000"/>
</g>
<defs>
<clipPath id="clip0_3722_83734">
<rect width="14" height="14" fill="white" transform="translate(1 1)"/>
</clipPath>
</defs>
</svg>
