<svg width="18" height="18" viewBox="0 0 18 18" fill="none" xmlns="http://www.w3.org/2000/svg">
<g id="3. LNB / lock" clip-path="url(#clip0_878_10607)">
<path id="Vector" d="M13.3923 8.09314V6.04286C13.3956 3.53657 11.4239 1.5 9.00331 1.5C6.57937 1.5 4.61272 3.53657 4.61272 6.04286V8.09486H3V16.5H15V8.09314H13.3923ZM6.26292 6.04286C6.26292 4.48114 7.49394 3.21257 9.00331 3.21257C10.5094 3.21257 11.7371 4.48114 11.7371 6.04286V8.09486H6.26292V6.04286ZM9.75717 14.1926H8.25111L8.47644 11.8886C8.19644 11.7086 8.01087 11.3897 8.01087 11.0211C8.01087 10.4554 8.4549 9.996 9.00331 9.996C9.55007 9.996 9.9941 10.4554 9.9941 11.0211C9.9941 11.388 9.80853 11.7103 9.52521 11.8886L9.75717 14.1926Z" fill="#646469"/>
</g>
<defs>
<clipPath id="clip0_878_10607">
<rect width="18" height="18" fill="white"/>
</clipPath>
</defs>
</svg>
