<svg width="82" height="32" viewBox="0 0 82 32" fill="none" xmlns="http://www.w3.org/2000/svg">
<g clip-path="url(#clip0_1715_3914)">
<path d="M16.9992 11.997C17.0028 10.3963 16.4321 8.80087 15.3988 7.56652C15.1377 7.25349 14.8515 6.96358 14.5401 6.70035C14.0972 6.3055 13.5968 5.99602 12.9541 6.00492C12.9433 6.00492 11.0297 6.00492 11.0189 6.00492C10.7344 5.99424 10.5058 6.29483 10.5256 6.50648C10.5256 6.5794 10.5256 9.50519 10.5256 9.51764C10.5256 9.79155 10.7812 10.0139 11.0315 10.005C11.0549 10.005 12.1854 10.005 12.1854 10.005C12.2448 10.0726 12.3024 10.1402 12.3564 10.2113C12.4122 10.2878 12.4662 10.366 12.5166 10.4443C12.5652 10.5261 12.6103 10.6097 12.6535 10.6933C12.6931 10.7804 12.7327 10.8694 12.7669 10.9583C12.7993 11.0526 12.8299 11.1486 12.8569 11.2447C12.8803 11.3425 12.9019 11.4421 12.9181 11.5417C12.9325 11.6431 12.9433 11.7462 12.9487 11.8476C12.9523 11.9472 12.9523 12.0468 12.9487 12.1482C12.9415 12.2513 12.9307 12.3527 12.9181 12.4541C12.9001 12.5537 12.8803 12.6533 12.8569 12.7511C12.8299 12.8454 12.8011 12.9397 12.7687 13.0339C12.7345 13.1229 12.6967 13.2118 12.6553 13.2989C12.6121 13.3843 12.5652 13.4679 12.5166 13.5497C12.4662 13.6298 12.4122 13.708 12.3564 13.7845C12.2988 13.8592 12.2376 13.9321 12.1746 14.0015C12.1746 14.0015 12.1746 14.0015 12.1728 14.0033H11.0315C10.7524 14.0033 10.5256 14.2274 10.5256 14.5031V17.5035C10.5256 17.7792 10.7524 18.0033 11.0315 18.0033H12.9541C13.5932 18.0087 14.0792 17.7205 14.5113 17.3186C14.7885 17.0856 15.0477 16.8295 15.2872 16.5573C16.3313 15.371 16.9452 13.8236 16.9938 12.2513C16.9974 12.166 17.001 12.0806 16.9992 11.9952V11.997Z" fill="url(#paint0_linear_1715_3914)"/>
<g style="mix-blend-mode:multiply" opacity="0.35">
<path d="M16.9992 11.9968C17.0028 10.396 16.4321 8.80063 15.3988 7.56628C15.1377 7.25325 14.8515 6.96333 14.5401 6.7001C14.0972 6.30525 13.5968 5.99578 12.9541 6.00467C12.9433 6.00467 11.0297 6.00467 11.0189 6.00467C10.7344 5.994 10.5058 6.29458 10.5256 6.50624C10.5256 6.57916 10.5256 9.50495 10.5256 9.5174C10.5256 9.7913 10.7812 10.0136 11.0315 10.0047C11.0549 10.0047 12.1854 10.0047 12.1854 10.0047C12.2448 10.0723 12.3024 10.1399 12.3564 10.2111C12.4122 10.2875 12.4662 10.3658 12.5166 10.444C12.5652 10.5259 12.6103 10.6095 12.6535 10.6931C12.6931 10.7802 12.7327 10.8691 12.7669 10.9581C12.7993 11.0523 12.8299 11.1484 12.8569 11.2444C12.8803 11.3422 12.9019 11.4418 12.9181 11.5414C12.9325 11.6428 12.9433 11.746 12.9487 11.8474C12.9523 11.947 12.9523 12.0466 12.9487 12.1479C12.9415 12.2511 12.9307 12.3525 12.9181 12.4539C12.9001 12.5535 12.8803 12.6531 12.8569 12.7509C12.8299 12.8452 12.8011 12.9394 12.7687 13.0337C12.7345 13.1226 12.6967 13.2115 12.6553 13.2987C12.6121 13.3841 12.5652 13.4677 12.5166 13.5495C12.4662 13.6295 12.4122 13.7078 12.3564 13.7843C12.2988 13.859 12.2376 13.9319 12.1746 14.0012C12.1746 14.0012 12.1746 14.0012 12.1728 14.003H11.0315C10.7524 14.003 10.5256 14.2271 10.5256 14.5028V17.5033C10.5256 17.779 10.7524 18.0031 11.0315 18.0031H12.9541C13.5932 18.0084 14.0792 17.7203 14.5113 17.3183C14.7885 17.0853 15.0477 16.8292 15.2872 16.5571C16.3313 15.3708 16.9452 13.8234 16.9938 12.2511C16.9974 12.1657 17.001 12.0804 16.9992 11.995V11.9968Z" fill="#00AAFF"/>
</g>
<path d="M8.5276 22.481C8.5276 22.3707 8.48979 22.2693 8.42859 22.1857C8.33498 22.0577 8.17836 21.9812 8.01994 21.983C7.59329 21.9883 6.88041 21.983 6.50056 21.983C6.49696 21.0848 6.49516 20.1866 6.49156 19.2902C6.57257 17.645 5.75167 16.0602 4.46632 15.0678C4.45012 15.0553 4.43572 15.0429 4.41952 15.0304C4.37271 14.9949 4.32411 14.9611 4.2755 14.9273C4.2449 14.9059 4.21429 14.8846 4.18369 14.865C3.71924 14.5538 3.20438 14.3172 2.65531 14.1749C1.94783 13.9828 1.21154 14.0024 0.486056 14.0113C0.216025 14.022 0 14.2407 0 14.5111L0.0108008 17.5116C0.0108008 17.7143 0.145817 17.9082 0.34024 17.9776C0.725485 18.0665 1.13953 17.9616 1.53018 18.0256C2.01804 18.1092 2.41048 18.5432 2.44469 19.0305C2.45729 20.3235 2.45369 21.6166 2.46089 22.9096C2.35648 24.3289 3.4222 25.7109 4.84617 25.9457C5.39883 26.04 5.9623 25.9759 6.52036 25.9919L8.03794 25.9884C8.31697 25.9884 8.5438 25.7625 8.542 25.4868L8.5312 22.4863L8.5276 22.481Z" fill="url(#paint1_linear_1715_3914)"/>
<g style="mix-blend-mode:multiply" opacity="0.35">
<path d="M8.5276 22.4824C8.5276 22.3722 8.48979 22.2708 8.42859 22.1872C8.33498 22.0591 8.17836 21.9827 8.01994 21.9844C7.59329 21.9898 6.88041 21.9844 6.50056 21.9844C6.49696 21.0862 6.49516 20.1881 6.49156 19.2916C6.57257 17.6464 5.75167 16.0617 4.46632 15.0693C4.45012 15.0568 4.43572 15.0444 4.41952 15.0319C4.37271 14.9963 4.32411 14.9625 4.2755 14.9287C4.2449 14.9074 4.21429 14.8861 4.18369 14.8665C3.71924 14.5552 3.20438 14.3187 2.65531 14.1764C1.94783 13.9843 1.21154 14.0039 0.486056 14.0128C0.216025 14.0234 0 14.2422 0 14.5126L0.0108008 17.513C0.0108008 17.7158 0.145817 17.9097 0.34024 17.979C0.725485 18.068 1.13953 17.963 1.53018 18.0271C2.01804 18.1107 2.41048 18.5446 2.44469 19.032C2.45729 20.325 2.45369 21.618 2.46089 22.9111C2.35648 24.3304 3.4222 25.7124 4.84617 25.9472C5.39883 26.0414 5.9623 25.9774 6.52036 25.9934L8.03794 25.9898C8.31697 25.9898 8.5438 25.764 8.542 25.4883L8.5312 22.4878L8.5276 22.4824Z" fill="#2C78FF"/>
</g>
<path style="mix-blend-mode:multiply" d="M8.5276 22.4802C8.5276 22.37 8.48979 22.2686 8.42859 22.185C8.33498 22.0569 8.17836 21.9805 8.01994 21.9822C7.59329 21.9876 6.88041 21.9822 6.50056 21.9822C6.49696 21.084 6.49516 20.1859 6.49156 19.2894C6.57257 17.6442 5.75167 16.0595 4.46632 15.0671C4.45012 15.0546 4.43572 15.0422 4.41952 15.0297C4.37271 14.9941 4.32411 14.9603 4.2755 14.9265C4.2449 14.9052 4.21429 14.8839 4.18369 14.8643C3.71924 14.553 3.20438 14.3165 2.65531 14.1742C1.94783 13.9821 1.21154 14.0017 0.486056 14.0106C0.216025 14.0212 0 14.24 0 14.5104L0.0108008 17.5108C0.0108008 17.7136 0.145817 17.9075 0.34024 17.9768C0.725485 18.0658 1.13953 17.9608 1.53018 18.0249C2.01804 18.1085 2.41048 18.5424 2.44469 19.0298C2.45729 20.3228 2.45369 21.6159 2.46089 22.9089C2.35648 24.3282 3.4222 25.7102 4.84617 25.945C5.39883 26.0392 5.9623 25.9752 6.52036 25.9912L8.03794 25.9876C8.31697 25.9876 8.5438 25.7618 8.542 25.4861L8.5312 22.4856L8.5276 22.4802Z" fill="url(#paint2_linear_1715_3914)"/>
<path d="M12.0401 9.82941H10.789C10.735 9.83119 10.6792 9.82052 10.627 9.80273C10.7242 9.92901 10.879 10.0091 11.032 10.0055H12.1859L12.0401 9.83119V9.82941Z" fill="url(#paint3_linear_1715_3914)"/>
<path d="M14.5403 6.70034C14.4017 6.57762 14.2577 6.46557 14.1065 6.36597C14.1713 6.41755 14.2343 6.4709 14.2973 6.52604C14.6087 6.78927 14.8949 7.08096 15.156 7.39222C16.1893 8.62834 16.7582 10.222 16.7564 11.8227C16.7564 11.9081 16.7546 11.9934 16.7492 12.0788C16.7006 13.6511 16.0867 15.1967 15.0426 16.3848C14.8031 16.6569 14.5457 16.9113 14.2667 17.146C13.8346 17.548 13.3486 17.8361 12.7095 17.8308H10.7869C10.7293 17.8308 10.6753 17.8201 10.623 17.8023C10.7149 17.9251 10.8625 18.0051 11.0281 18.0051H12.9507C13.5898 18.0087 14.0759 17.7223 14.5079 17.3203C14.7851 17.0873 15.0444 16.8312 15.2838 16.5591C16.3279 15.3728 16.9418 13.8254 16.9904 12.2531C16.994 12.1678 16.9976 12.0824 16.9976 11.997C17.0012 10.3963 16.4305 8.80087 15.3972 7.56652C15.1362 7.25349 14.8499 6.96358 14.5385 6.70034H14.5403Z" fill="url(#paint4_linear_1715_3914)"/>
<path d="M8.42871 22.1867C8.3729 22.1102 8.29189 22.055 8.20368 22.0212C8.26309 22.1031 8.29729 22.2009 8.29909 22.3094L8.30989 25.3099C8.30989 25.5855 8.08487 25.8114 7.80583 25.8114L6.28826 25.8168C5.73019 25.8008 5.16672 25.8648 4.61406 25.7705C4.21441 25.7047 3.84357 25.5464 3.51953 25.3241C3.89578 25.6389 4.34583 25.8612 4.84449 25.943C5.39715 26.0373 5.96062 25.9733 6.51868 25.9893L8.03626 25.9857C8.31529 25.9857 8.54212 25.7599 8.54032 25.4842L8.52952 22.4837C8.52952 22.3734 8.49171 22.272 8.43051 22.1884L8.42871 22.1867Z" fill="url(#paint5_linear_1715_3914)"/>
<path d="M0.108398 17.8005C0.166005 17.8788 0.245214 17.941 0.338825 17.9748C0.72407 18.0638 1.13812 17.9588 1.52876 18.0229C1.64938 18.0442 1.76279 18.0851 1.8672 18.1438C1.71059 17.9944 1.51616 17.8859 1.30014 17.8503C0.909493 17.7863 0.495444 17.8912 0.110199 17.8023L0.108398 17.8005Z" fill="url(#paint6_linear_1715_3914)"/>
<path d="M6.50122 21.9822C6.49762 21.1409 6.49582 20.1289 6.49222 19.2894C6.57322 17.6442 5.75233 16.0594 4.46698 15.067C4.45078 15.0545 4.43637 15.0421 4.41837 15.0296C4.37517 14.9976 4.33016 14.9656 4.28516 14.9336C5.5417 15.9296 6.341 17.4912 6.26179 19.1169C6.26539 20.015 6.26719 21.0858 6.27079 21.984H6.49942L6.50122 21.9822Z" fill="url(#paint7_linear_1715_3914)"/>
<path d="M7.99474 6.00345H6.47716C5.9497 6.01946 5.41683 5.96788 4.89117 6.0408C4.87137 6.04258 4.85337 6.04614 4.83357 6.0497C3.3844 6.27914 2.31507 7.67533 2.42848 9.11066C2.42488 10.4001 2.43389 11.6896 2.42488 12.9773C2.39608 13.4149 2.08284 13.8079 1.66339 13.9467C1.59679 13.968 1.52838 13.984 1.45997 13.9929C1.45637 13.9929 1.45097 13.9929 1.44737 13.9947C1.12873 14.0143 0.810094 13.9982 0.491457 14.0036C0.219625 14.0107 0 14.2312 0 14.5016V17.5021C0 17.7778 0.226826 18.0019 0.504058 18.0019C1.01892 17.9983 1.53738 18.0268 2.04864 17.9485C2.08284 17.945 2.11525 17.9396 2.14945 17.9343C2.15485 17.9343 2.16025 17.9343 2.16745 17.9307C2.17105 17.9307 2.17646 17.9307 2.18006 17.9289C2.23586 17.9201 2.29167 17.9094 2.34748 17.8969C2.35108 17.8969 2.35468 17.8952 2.36008 17.8934C3.03516 17.7564 3.68143 17.4825 4.2449 17.093C5.32142 16.3638 6.09551 15.2148 6.36375 13.9538C6.46996 13.486 6.48256 13.0058 6.47536 12.5291C6.47536 11.6878 6.47536 10.8484 6.47536 10.0071C6.51496 10.0035 7.90833 9.99818 7.99474 10.0017C8.27377 10.0017 8.5006 9.77764 8.5006 9.50195V6.50146C8.5006 6.22578 8.27377 6.00167 7.99474 6.00167V6.00345Z" fill="url(#paint8_linear_1715_3914)"/>
<path d="M7.99474 6.00356H6.47716C5.9497 6.01956 5.41683 5.96799 4.89117 6.04091C4.88577 6.04091 4.88217 6.04091 4.87677 6.04269C4.87317 6.04269 4.86957 6.04269 4.86597 6.04269C4.86237 6.04269 4.85697 6.04269 4.85337 6.04446C4.84617 6.04446 4.84077 6.04624 4.83357 6.04802C3.3844 6.27746 2.31507 7.67366 2.42848 9.10899C2.42488 10.3985 2.43389 11.688 2.42488 12.9757C2.40328 13.262 2.26466 13.5359 2.04684 13.7244C1.93343 13.8205 1.80381 13.897 1.66339 13.945C1.59679 13.9663 1.52838 13.9823 1.45997 13.9912C1.45637 13.9912 1.45097 13.9912 1.44737 13.993C1.12873 14.0126 0.810094 13.9966 0.491457 14.0019C0.219625 14.009 0 14.2296 0 14.4999V17.5004C0 17.7761 0.226826 18.0002 0.504058 18.0002C1.01892 17.9966 1.53738 18.0251 2.04864 17.9468C2.06124 17.9468 2.07384 17.9433 2.08644 17.9415C2.09544 17.9415 2.10265 17.9397 2.11165 17.9379C2.12425 17.9362 2.13685 17.9344 2.14945 17.9326C2.15485 17.9326 2.16025 17.9326 2.16745 17.929C2.17105 17.929 2.17646 17.929 2.18006 17.9273C2.22686 17.9202 2.27547 17.9113 2.32227 17.9006C2.33127 17.9006 2.34027 17.897 2.34927 17.8953C2.35287 17.8953 2.35648 17.8935 2.36188 17.8917C3.03695 17.7547 3.68323 17.4808 4.2467 17.0913C5.32322 16.3621 6.09731 15.2131 6.36555 13.9521C6.47176 13.4843 6.48436 13.0041 6.47716 12.5275C6.47716 11.6862 6.47716 10.8467 6.47716 10.0054C6.51676 10.0018 7.91013 9.99651 7.99654 10.0001C8.27557 10.0001 8.5024 9.77596 8.5024 9.50028V6.49979C8.5024 6.2241 8.27557 6 7.99654 6L7.99474 6.00356Z" fill="url(#paint9_linear_1715_3914)"/>
<path style="mix-blend-mode:multiply" opacity="0.45" d="M8.1626 6.03369C8.22381 6.11551 8.26161 6.21689 8.26161 6.32716V9.32765C8.26161 9.60334 8.03478 9.82744 7.75575 9.82744C7.66754 9.82388 6.27598 9.82744 6.23637 9.83277C6.23637 10.6741 6.23637 11.5135 6.23637 12.3548C6.24358 12.8315 6.23097 13.3117 6.12476 13.7795C5.85653 15.0423 5.08244 16.1895 4.00591 16.9187C3.44245 17.3082 2.79617 17.5821 2.12109 17.7191C2.12109 17.7191 2.11389 17.7209 2.10849 17.7226C2.09949 17.7226 2.09049 17.7262 2.08149 17.728C2.03468 17.7386 1.98788 17.7475 1.93927 17.7546C1.93567 17.7546 1.93027 17.7546 1.92667 17.7564C1.92127 17.7564 1.91587 17.7564 1.90867 17.76C1.89607 17.76 1.88347 17.7635 1.87086 17.7653C1.86186 17.7653 1.85466 17.7671 1.84566 17.7689C1.83306 17.7689 1.82046 17.7724 1.80786 17.7742C1.2966 17.8525 0.778136 17.8258 0.263275 17.8276C0.205669 17.8276 0.151662 17.8151 0.101256 17.7991C0.101256 17.7991 0.0994565 17.7991 0.0976562 17.7991C0.189467 17.9236 0.337083 18.0054 0.504503 18.0054C1.01936 18.0019 1.53782 18.0303 2.04908 17.9521C2.06169 17.9521 2.07429 17.9485 2.08689 17.9467C2.09589 17.9467 2.10309 17.945 2.11209 17.9432C2.12469 17.9414 2.13729 17.9396 2.1499 17.9378C2.1553 17.9378 2.1607 17.9378 2.1679 17.9343C2.1715 17.9343 2.1769 17.9343 2.1805 17.9325C2.22731 17.9254 2.27591 17.9165 2.32272 17.9058C2.33172 17.9058 2.34072 17.9023 2.34972 17.9005C2.35332 17.9005 2.35692 17.8987 2.36232 17.8969C3.0374 17.76 3.68368 17.4861 4.24714 17.0966C5.32367 16.3673 6.09776 15.2184 6.36599 13.9573C6.4722 13.4896 6.4848 13.0093 6.4776 12.5327C6.4776 11.6914 6.4776 10.8519 6.4776 10.0106C6.51721 10.0071 7.91057 10.0017 7.99698 10.0053C8.27601 10.0053 8.50284 9.7812 8.50284 9.50551V6.50502C8.50284 6.28625 8.36062 6.10306 8.1626 6.03547V6.03369Z" fill="url(#paint10_linear_1715_3914)"/>
</g>
<g clip-path="url(#clip1_1715_3914)">
<path d="M30.0871 10.2988L25.623 21.7333H29.2018L29.8626 19.8628H34.2145L34.8753 21.7333H38.479L34.0149 10.2988H30.0871ZM30.723 17.4313L32.0323 13.7279L33.3541 17.4313H30.723Z" fill="black"/>
<path d="M43.7157 10.2988H40.3115V21.7333H43.7157V10.2988Z" fill="black"/>
<path d="M53.9657 10.7851C53.2799 10.4609 52.4444 10.2988 51.4594 10.2988H46.3594V21.7333H49.7635V17.8677H51.4469C52.4444 17.8677 53.2923 17.6932 53.9782 17.3565C54.664 17.0198 55.1877 16.5585 55.5244 15.9973C55.861 15.4237 56.0356 14.8003 56.0356 14.102C56.0356 13.3538 55.861 12.693 55.5119 12.1194C55.1752 11.5582 54.6515 11.1093 53.9657 10.7851ZM51.1227 15.3489H49.7635V12.8675H51.1227C52.0828 12.8675 52.5691 13.279 52.5691 14.1145C52.5691 14.9374 52.0828 15.3489 51.1227 15.3489Z" fill="black"/>
<path d="M64.5146 17.5193C64.5146 18.043 64.3649 18.4421 64.0781 18.7413C63.7913 19.0406 63.3923 19.1902 62.8935 19.1902C62.4072 19.1902 62.0207 19.0406 61.7214 18.7413C61.4222 18.4421 61.2725 18.0306 61.2725 17.5193V13.155H57.8809V17.9184C57.8809 19.1154 58.2051 20.0631 58.8659 20.7614C59.5143 21.4597 60.4121 21.8088 61.5469 21.8088C62.6566 21.8088 63.7539 21.6342 64.5021 20.8736V21.7215H67.9312V13.1426H64.5021V17.5193H64.5146Z" fill="black"/>
<path d="M80.8633 14.4878C80.5017 13.7895 80.0029 13.2408 79.367 12.8667C78.731 12.4927 78.0327 12.2931 77.2596 12.2931C76.5988 12.2931 76.0252 12.4178 75.5389 12.6548C75.0526 12.9041 74.6785 13.2408 74.4041 13.6648V9.5H71V21.508H74.4041V20.2486C74.666 20.685 75.0526 21.0217 75.5389 21.2586C76.0252 21.508 76.5988 21.6202 77.2596 21.6202C78.0327 21.6202 78.7435 21.4332 79.367 21.0466C80.0029 20.6726 80.5017 20.1239 80.8633 19.4132C81.2249 18.7024 81.4119 17.8794 81.4119 16.9442C81.4119 16.009 81.2249 15.186 80.8633 14.4878ZM77.4841 18.3408C77.1723 18.6775 76.7983 18.852 76.3494 18.852C75.9005 18.852 75.5264 18.6899 75.2146 18.3533C74.9029 18.0166 74.7533 17.5552 74.7533 16.9567C74.7533 16.3706 74.9029 15.9093 75.2146 15.5726C75.5264 15.2359 75.9005 15.0738 76.3494 15.0738C76.7983 15.0738 77.1723 15.2359 77.4841 15.5726C77.7958 15.8968 77.9454 16.3706 77.9454 16.9567C77.9454 17.5303 77.7958 18.0041 77.4841 18.3408Z" fill="black"/>
</g>
<defs>
<linearGradient id="paint0_linear_1715_3914" x1="10.0378" y1="7.25349" x2="15.8162" y2="17.8348" gradientUnits="userSpaceOnUse">
<stop stop-color="#008BFF"/>
<stop offset="1" stop-color="#00AAFF"/>
</linearGradient>
<linearGradient id="paint1_linear_1715_3914" x1="1.7354" y1="10.76" x2="5.97376" y2="26.594" gradientUnits="userSpaceOnUse">
<stop offset="0.14" stop-color="#3652FF"/>
<stop offset="1" stop-color="#2C78FF"/>
</linearGradient>
<linearGradient id="paint2_linear_1715_3914" x1="4.2701" y1="20.5167" x2="4.25077" y2="14.7007" gradientUnits="userSpaceOnUse">
<stop offset="0.07" stop-color="#3652FF" stop-opacity="0"/>
<stop offset="1" stop-color="#2F48E0"/>
</linearGradient>
<linearGradient id="paint3_linear_1715_3914" x1="11.1814" y1="9.50037" x2="11.6232" y2="10.3106" gradientUnits="userSpaceOnUse">
<stop stop-color="#008BFF"/>
<stop offset="1" stop-color="#00AAFF"/>
</linearGradient>
<linearGradient id="paint4_linear_1715_3914" x1="10.6122" y1="8.2744" x2="15.3623" y2="16.9705" gradientUnits="userSpaceOnUse">
<stop stop-color="#008BFF"/>
<stop offset="1" stop-color="#00AAFF"/>
</linearGradient>
<linearGradient id="paint5_linear_1715_3914" x1="5.69959" y1="22.69" x2="6.68349" y2="26.3617" gradientUnits="userSpaceOnUse">
<stop offset="0.14" stop-color="#3652FF"/>
<stop offset="1" stop-color="#2C78FF"/>
</linearGradient>
<linearGradient id="paint6_linear_1715_3914" x1="0.882489" y1="17.5924" x2="1.0849" y2="18.3514" gradientUnits="userSpaceOnUse">
<stop offset="0.14" stop-color="#3652FF"/>
<stop offset="1" stop-color="#2C78FF"/>
</linearGradient>
<linearGradient id="paint7_linear_1715_3914" x1="4.86842" y1="14.7771" x2="6.77815" y2="21.9085" gradientUnits="userSpaceOnUse">
<stop offset="0.14" stop-color="#3652FF"/>
<stop offset="1" stop-color="#2C78FF"/>
</linearGradient>
<linearGradient id="paint8_linear_1715_3914" x1="5.9821" y1="16.2677" x2="1.51797" y2="5.01639" gradientUnits="userSpaceOnUse">
<stop offset="0.15" stop-color="#FAFAFA"/>
<stop offset="0.85" stop-color="#E8E8E8"/>
</linearGradient>
<linearGradient id="paint9_linear_1715_3914" x1="1.62019" y1="2.07642" x2="5.38117" y2="16.6227" gradientUnits="userSpaceOnUse">
<stop offset="0.02" stop-color="#FF9230"/>
<stop offset="0.84" stop-color="#FFB83F"/>
</linearGradient>
<linearGradient id="paint10_linear_1715_3914" x1="3.0302" y1="13.5287" x2="11.5801" y2="8.11964" gradientUnits="userSpaceOnUse">
<stop offset="0.02" stop-color="#FF9230"/>
<stop offset="0.84" stop-color="#FFB83F"/>
</linearGradient>
<clipPath id="clip0_1715_3914">
<rect width="17" height="20" fill="white" transform="translate(0 6)"/>
</clipPath>
<clipPath id="clip1_1715_3914">
<rect width="57" height="13" fill="white" transform="translate(25 9.5)"/>
</clipPath>
</defs>
</svg>
