<svg xmlns="http://www.w3.org/2000/svg" width="180" height="154" viewBox="0 0 180 154" fill="none">
  <mask id="mask0_5270_51689" style="mask-type:alpha" maskUnits="userSpaceOnUse" x="0" y="0" width="180" height="154">
    <rect width="180" height="154" fill="#D9D9D9"/>
  </mask>
  <g mask="url(#mask0_5270_51689)">
    <path d="M238.869 109.34L214.727 93.7331C214.727 93.7331 194.174 59.1526 165.614 56.5719C162.047 56.2492 130.579 39.9672 130.579 39.9672C123.183 36.9711 118.708 37.2077 116.079 39.6437C112.263 43.1788 114.089 50.0578 119.266 53.4098L135.697 64.0452C131.669 72.7635 132.127 99.6822 136.31 105.741C139.106 109.789 143.065 113.08 147.906 115.058L161.586 120.649L184 159.5" fill="white"/>
    <path d="M181.841 156.072C181.704 156.146 181.583 156.249 181.505 156.119L161.392 120.873L147.801 115.32C143.043 113.376 138.99 110.117 136.077 105.9C131.848 99.7798 131.408 73.1182 135.336 64.1486L119.114 53.6462C116.113 51.7015 114.074 48.4895 113.794 45.2582C113.595 42.9378 114.338 40.8686 115.888 39.4322C118.782 36.7516 123.623 36.8383 130.69 39.7015C131.029 39.8766 162.17 55.9729 165.641 56.2865C180.481 57.6271 193.108 67.7059 201.089 75.9221C209.349 84.4268 214.469 92.7544 214.94 93.5289L239.175 109.18L181.843 156.076L181.841 156.072ZM238.582 109.493L214.571 93.9713C214.533 93.9487 214.502 93.914 214.482 93.8773C214.432 93.7923 209.256 85.1512 200.668 76.3067C192.76 68.163 180.253 58.179 165.593 56.8537C162.009 56.5315 131.74 40.8831 130.452 40.2198C123.633 37.4598 118.988 37.337 116.279 39.8497C114.861 41.1638 114.18 43.067 114.369 45.2081C114.633 48.267 116.573 51.3175 119.43 53.1629L135.861 63.7983C135.98 63.8762 136.023 64.0292 135.964 64.1596C131.975 72.7888 132.357 99.4944 136.554 105.571C139.405 109.697 143.373 112.885 148.027 114.786L161.707 120.378C161.767 120.402 161.816 120.445 161.846 120.501L182 156" fill="#1A1A1A"/>
    <path d="M157.867 42.843L166.454 40.8535C170.65 39.881 173.214 35.4699 172.176 30.9996L171.784 29.3149C170.75 24.8428 166.507 22.0082 162.311 22.9807L153.724 24.9701L157.863 42.8448L157.867 42.843Z" fill="#1E1E51"/>
    <path d="M168.403 40.4275C167.819 40.7405 167.191 40.9785 166.519 41.1364L157.932 43.1258C157.779 43.1606 157.624 43.0634 157.589 42.9102L153.45 25.0356C153.432 24.9632 153.445 24.8832 153.484 24.8195C153.523 24.7557 153.588 24.7081 153.665 24.6924L162.252 22.7029C164.358 22.2148 166.543 22.629 168.398 23.8692C170.247 25.1078 171.55 27.0176 172.069 29.2527L172.46 30.9375C173.367 34.8422 171.599 38.7192 168.405 40.4308L168.403 40.4275ZM158.082 42.4998L166.39 40.5742C170.423 39.6419 172.896 35.3739 171.896 31.0635L171.505 29.3788C171.02 27.2884 169.801 25.5016 168.072 24.3443C166.351 23.1918 164.327 22.8069 162.375 23.2602L154.067 25.1858L158.077 42.4983L158.082 42.4998Z" fill="#1E1E51"/>
    <path d="M162.694 122.701C167.047 121.692 169.623 116.751 168.444 111.664L156.922 61.9251C155.743 56.8388 151.26 53.5315 146.904 54.5424C142.552 55.5515 139.976 60.4933 141.155 65.5796L152.677 115.319C153.855 120.405 158.338 123.712 162.694 122.701Z" fill="#1E1E51"/>
    <path d="M164.572 122.301C164.005 122.605 163.398 122.836 162.76 122.984C158.258 124.026 153.609 120.619 152.399 115.386L140.877 65.6468C140.292 63.1205 140.584 60.5456 141.702 58.3997C142.825 56.2385 144.651 54.7706 146.841 54.2631C149.03 53.7556 151.313 54.2722 153.274 55.7177C155.22 57.1535 156.617 59.335 157.202 61.8614L168.724 111.601C169.308 114.127 169.017 116.702 167.898 118.848C167.1 120.38 165.951 121.562 164.569 122.303L164.572 122.301ZM162.631 122.422C164.652 121.953 166.343 120.587 167.389 118.579C168.443 116.554 168.717 114.122 168.165 111.728L156.643 61.989C156.087 59.5974 154.77 57.5322 152.936 56.1779C151.112 54.8352 148.993 54.3513 146.972 54.8201C144.95 55.289 143.259 56.6548 142.213 58.6631C141.159 60.6886 140.885 63.1207 141.438 65.5141L152.96 115.253C154.098 120.176 158.438 123.393 162.631 122.422Z" fill="#1E1E51"/>
    <path d="M148.399 81.6659C151.964 80.8383 154.456 78.4418 153.961 76.3144L149.138 55.4893C148.646 53.3601 145.355 52.3012 141.79 53.1288C138.225 53.9563 135.733 56.3528 136.229 58.4802L141.051 79.3053C141.544 81.4345 144.835 82.4934 148.399 81.6659Z" fill="#FFDB20"/>
    <path d="M151.091 80.9713C150.313 81.388 149.428 81.7248 148.465 81.9485C146.691 82.3578 144.923 82.3299 143.487 81.8707C141.998 81.3927 141.036 80.5034 140.774 79.3724L135.948 58.549C135.686 57.418 136.161 56.1966 137.289 55.111C138.378 54.0637 139.954 53.2619 141.727 52.8492C143.501 52.4399 145.268 52.4679 146.704 52.927C148.194 53.405 149.156 54.2943 149.418 55.4254L154.244 76.2487C154.634 77.9386 153.314 79.7802 151.094 80.9695L151.091 80.9713ZM139.343 54.3414C138.712 54.6794 138.149 55.0799 137.687 55.525C136.713 56.464 136.293 57.4923 136.509 58.4163L141.334 79.2396C141.549 80.1687 142.378 80.9059 143.665 81.3202C145.004 81.7499 146.666 81.7741 148.339 81.3845C151.744 80.5954 154.146 78.3505 153.685 76.3763L148.859 55.553C148.645 54.6239 147.816 53.8867 146.528 53.4724C145.19 53.0427 143.527 53.0186 141.854 53.4081C140.945 53.6201 140.092 53.9356 139.341 54.3381L139.343 54.3414Z" fill="#1E1E51"/>
    <path d="M132.469 59.4349L131.657 55.9341C130.896 52.6472 132.948 49.3576 136.235 48.5961L151.942 44.9568C155.229 44.1953 158.519 46.2473 159.28 49.5342L160.091 53.035C160.853 56.3219 158.801 59.6115 155.514 60.373L139.807 64.0123C136.52 64.7738 133.23 62.7218 132.469 59.4349Z" fill="#FFF7EF"/>
    <path d="M157.171 60.0566C156.677 60.3213 156.144 60.5211 155.584 60.6538L139.874 64.2948C138.207 64.6808 136.49 64.3939 135.04 63.4913C133.587 62.5853 132.577 61.1722 132.191 59.5059L131.38 56.005C130.994 54.3388 131.281 52.6213 132.184 51.171C133.09 49.7189 134.503 48.7082 136.169 48.3223L151.879 44.6813C155.32 43.886 158.765 46.035 159.561 49.4753L160.371 52.9762C160.757 54.6425 160.47 56.36 159.567 57.8102C158.966 58.7726 158.144 59.5395 157.17 60.0618L157.171 60.0566ZM139.741 63.7344L155.451 60.0934C156.967 59.7405 158.258 58.8214 159.079 57.5005C159.904 56.1777 160.163 54.6169 159.81 53.1005L159 49.5996C158.273 46.4708 155.136 44.513 152.007 45.2401L136.297 48.8811C134.78 49.234 133.49 50.1531 132.669 51.4741C131.844 52.7968 131.584 54.3576 131.937 55.8741L132.748 59.375C133.101 60.8914 134.02 62.1817 135.341 63.0033C136.662 63.8249 138.224 64.0873 139.741 63.7344Z" fill="#1A1A1A"/>
    <path d="M137.641 58.4537L155.938 54.2126C158.514 53.6146 160.118 51.045 159.52 48.4699C158.922 45.8948 156.353 44.2903 153.777 44.8883L135.479 49.126C132.904 49.7239 131.299 52.2936 131.897 54.8687C132.495 57.4438 135.065 59.0483 137.64 58.4503L137.641 58.4537Z" fill="#1E1E51"/>
    <path d="M157.263 54.0227C156.872 54.2319 156.446 54.3913 156.004 54.4953L137.707 58.7364C136.389 59.043 135.026 58.8156 133.877 58.0992C132.729 57.3829 131.924 56.2587 131.621 54.9391C131.314 53.6213 131.542 52.2578 132.258 51.1093C132.974 49.9607 134.099 49.1564 135.418 48.8532L153.717 44.6155C156.442 43.9844 159.172 45.6878 159.803 48.4127C160.11 49.7306 159.882 51.094 159.166 52.2425C158.689 53.0048 158.036 53.6128 157.265 54.026L157.263 54.0227ZM137.578 58.1742L155.874 53.9332C157.044 53.6629 158.041 52.9486 158.676 51.9294C159.311 50.9102 159.511 49.7034 159.241 48.5337C158.681 46.1184 156.26 44.6062 153.841 45.1676L135.542 49.4053C134.372 49.6756 133.374 50.3865 132.739 51.4057C132.104 52.4249 131.901 53.6335 132.174 54.8015C132.445 55.9713 133.159 56.9675 134.178 57.6028C135.197 58.2381 136.404 58.4378 137.574 58.1675L137.578 58.1742Z" fill="#1E1E51"/>
    <path d="M137.052 56.9696L155.105 52.7863C163.924 50.7411 169.31 41.471 167.132 32.0743L166.312 28.5313C164.134 19.1346 155.222 13.1742 146.4 15.216L128.347 19.3993L137.052 56.9696Z" fill="#FFDB20"/>
    <path d="M159.083 51.5996C157.862 52.2542 156.554 52.7485 155.174 53.0671L137.121 57.2504C137.049 57.2677 136.969 57.2547 136.905 57.2159C136.841 57.177 136.794 57.1123 136.778 57.0348L128.073 19.4645C128.056 19.3922 128.069 19.3122 128.108 19.2484C128.147 19.1846 128.211 19.1371 128.289 19.1213L146.342 14.938C155.299 12.8618 164.389 18.929 166.597 28.4689L167.417 32.0119C168.486 36.6287 167.803 41.3593 165.494 45.333C163.918 48.0509 161.707 50.1938 159.083 51.5996ZM137.271 56.6244L155.045 52.5049C159.234 51.536 162.766 48.8831 164.998 45.0404C167.232 41.1925 167.894 36.6064 166.856 32.1362L166.036 28.5932C163.898 19.3681 155.121 13.4903 146.469 15.4968L128.699 19.6146L137.274 56.6226L137.271 56.6244Z" fill="#1E1E51"/>
    <path d="M159.083 51.5996C157.862 52.2542 156.554 52.7485 155.174 53.0671L137.121 57.2504C137.049 57.2677 136.969 57.2547 136.905 57.2159C136.841 57.177 136.794 57.1123 136.778 57.0348L128.073 19.4645C128.056 19.3922 128.069 19.3122 128.108 19.2484C128.147 19.1846 128.211 19.1371 128.289 19.1213L146.342 14.938C155.299 12.8618 164.389 18.929 166.597 28.4689L167.417 32.0119C168.486 36.6287 167.803 41.3593 165.494 45.333C163.918 48.0509 161.707 50.1938 159.083 51.5996ZM137.271 56.6244L155.045 52.5049C159.234 51.536 162.766 48.8831 164.998 45.0404C167.232 41.1925 167.894 36.6064 166.856 32.1362L166.036 28.5932C163.898 19.3681 155.121 13.4903 146.469 15.4968L128.699 19.6146L137.274 56.6226L137.271 56.6244Z" fill="#1A1A1A"/>
    <path d="M128.352 19.4008L137.057 56.971C123.459 60.1203 111.281 67.9086 102.178 79.2778L87.5571 96.9764L66.0873 4.04378L87.213 14.7023C100.391 20.9114 114.751 22.5518 128.349 19.4026L128.352 19.4008Z" fill="#F8EADA"/>
    <path d="M87.6884 97.2284C87.6283 97.2606 87.5557 97.2694 87.4875 97.2544C87.3801 97.2303 87.2964 97.1463 87.2731 97.0385L65.8084 4.10746C65.7851 3.99969 65.8225 3.88513 65.9103 3.81657C65.9982 3.74802 66.1164 3.7362 66.2161 3.7859L87.3417 14.4444C100.52 20.6535 114.679 22.2725 128.284 19.1197C128.356 19.1024 128.436 19.1154 128.5 19.1542C128.564 19.1931 128.611 19.2578 128.627 19.3353L137.332 56.9055C137.349 56.9779 137.336 57.0579 137.297 57.1217C137.258 57.1854 137.193 57.233 137.116 57.2488C123.515 60.3998 111.507 68.08 102.396 79.4579L87.7711 97.1583C87.7482 97.1877 87.7184 97.2123 87.6851 97.2302L87.6884 97.2284ZM66.5061 4.57564L87.7007 96.3454L101.952 79.0943C111.081 67.6939 123.093 59.973 136.709 56.7537L128.137 19.7439C114.492 22.8369 100.308 21.188 87.0937 14.9596L66.5077 4.57051L66.5061 4.57564Z" fill="#1E1E51"/>
    <path d="M128.352 19.4008L137.057 56.971C123.459 60.1203 111.281 67.9086 102.178 79.2778L87.5571 96.9764L66.0873 4.04378L87.213 14.7023C100.391 20.9114 114.751 22.5518 128.349 19.4026L128.352 19.4008Z" fill="#F6EEEA"/>
    <path d="M87.6884 97.2284C87.6283 97.2606 87.5557 97.2694 87.4875 97.2544C87.3801 97.2303 87.2964 97.1463 87.2731 97.0385L65.8084 4.10746C65.7851 3.99969 65.8225 3.88513 65.9103 3.81657C65.9982 3.74802 66.1164 3.7362 66.2161 3.7859L87.3417 14.4444C100.52 20.6535 114.679 22.2725 128.284 19.1197C128.356 19.1024 128.436 19.1154 128.5 19.1542C128.564 19.1931 128.611 19.2578 128.627 19.3353L137.332 56.9055C137.349 56.9779 137.336 57.0579 137.297 57.1217C137.258 57.1854 137.193 57.233 137.116 57.2488C123.515 60.3998 111.507 68.08 102.396 79.4579L87.7711 97.1583C87.7482 97.1877 87.7184 97.2123 87.6851 97.2302L87.6884 97.2284ZM66.5061 4.57564L87.7007 96.3454L101.952 79.0943C111.081 67.6939 123.093 59.973 136.709 56.7537L128.137 19.7439C114.492 22.8369 100.308 21.188 87.0937 14.9596L66.5077 4.57051L66.5061 4.57564Z" fill="#1A1A1A"/>
    <path d="M56.1538 55.3991C62.1025 81.8457 74.4449 101.52 83.7213 99.3413C92.9978 97.1629 95.6926 73.9551 89.7438 47.5085C83.7951 21.0619 71.4527 1.38797 62.1763 3.56632C52.8998 5.74467 50.205 28.9525 56.1538 55.3991Z" fill="#1E1E51"/>
    <path d="M85.406 99.0058C84.8887 99.283 84.3455 99.4881 83.7852 99.6208C81.7976 100.089 79.6461 99.6091 77.3902 98.1973C69.1015 93.007 60.457 75.8324 55.8744 55.463C52.991 42.642 52.0302 30.1699 53.1739 20.3506C54.3233 10.4295 57.4996 4.37124 62.1125 3.28701C64.1001 2.81914 66.2516 3.29873 68.5075 4.71054C76.7962 9.90078 85.4407 27.0754 90.0233 47.4448C92.9067 60.2658 93.8675 72.7379 92.7238 82.5572C91.7113 91.2666 89.1391 97.0011 85.4042 99.0024L85.406 99.0058ZM60.7451 4.415C52.8648 8.63765 50.8645 30.5841 56.4332 55.3354C60.9848 75.5668 69.5286 92.5934 77.6949 97.7075C79.8162 99.0367 81.8214 99.4917 83.6524 99.0604C84.1707 98.9373 84.6735 98.7452 85.1508 98.4895C93.0311 94.2668 95.0281 72.3222 89.4626 47.5691C84.9111 27.3377 76.3673 10.311 68.201 5.19695C66.0797 3.86774 64.0745 3.41281 62.2401 3.84585C61.7185 3.97072 61.219 4.16103 60.7417 4.41679L60.7451 4.415Z" fill="#1E1E51"/>
    <path d="M85.1065 48.0484C80.4013 27.2788 71.3537 11.6272 64.8983 13.0897C58.4428 14.5521 57.024 32.5748 61.7293 53.3444C66.4345 74.1141 75.4821 89.7656 81.9375 88.3032C88.393 86.8407 89.8118 68.818 85.1065 48.0484Z" fill="#FFF5F1"/>
    <mask id="mask1_5270_51689" style="mask-type:luminance" maskUnits="userSpaceOnUse" x="58" y="12" width="30" height="77">
      <path d="M85.1065 48.0484C80.4013 27.2788 71.3537 11.6272 64.8983 13.0897C58.4428 14.5521 57.024 32.5748 61.7293 53.3444C66.4345 74.1141 75.4821 89.7656 81.9375 88.3032C88.393 86.8407 89.8118 68.818 85.1065 48.0484Z" fill="white"/>
    </mask>
    <g mask="url(#mask1_5270_51689)">
      <path d="M91.5125 37.268L79.3322 40.1604C74.3577 41.3396 71.4439 47.2142 72.8265 53.274C74.2058 59.3355 79.3594 63.293 84.3339 62.1138L96.5143 59.2215L91.5125 37.268Z" fill="#FFDB20"/>
      <path d="M96.6503 59.4752C96.6303 59.4859 96.6069 59.4985 96.5815 59.4992L84.4012 62.3915C82.2438 62.9032 79.9364 62.4856 77.8998 61.2184C75.2682 59.5783 73.3167 56.706 72.5472 53.3378C71.1333 47.1315 74.1493 41.0948 79.2667 39.8777L91.4471 36.9854C91.5228 36.9663 91.5994 36.981 91.6632 37.0199C91.7288 37.0621 91.7745 37.1235 91.7903 37.201L96.792 59.1544C96.8228 59.284 96.7587 59.4128 96.6485 59.4719L96.6503 59.4752ZM77.6043 41.1208C73.9162 43.0971 71.9431 48.0896 73.1112 53.2118C73.8443 56.4319 75.7007 59.1747 78.2063 60.7319C80.1135 61.9181 82.266 62.3113 84.2736 61.8327L96.1763 59.0075L91.3022 37.6129L79.4028 40.4363C78.7667 40.5881 78.1684 40.8185 77.6043 41.1208Z" fill="#1E1E51"/>
      <path d="M76.3964 53.8184C75.7611 51.5425 74.2721 49.7498 72.6606 49.0754C72.2367 50.441 72.2204 52.1424 72.7177 53.9122C73.3115 56.0385 74.5138 57.8172 75.9252 58.9039C76.7261 57.6886 76.9525 55.8102 76.3964 53.8184Z" fill="#FEEC00"/>
      <path d="M76.0578 59.1594C76.0311 59.1737 76.0026 59.1847 75.9705 59.189C75.8912 59.2014 75.8128 59.1833 75.747 59.1326C74.2334 57.9675 73.0267 56.0923 72.4369 53.9897C71.9468 52.2331 71.9271 50.4566 72.3837 48.9918C72.407 48.9149 72.4679 48.8522 72.5346 48.8164C72.6065 48.7822 72.6911 48.7798 72.7683 48.8115C74.529 49.5478 76.0224 51.4369 76.6686 53.7413C77.2283 55.7397 77.0373 57.7324 76.16 59.0616C76.1341 59.1013 76.096 59.1346 76.056 59.1561L76.0578 59.1594ZM72.8464 49.4785C72.5173 50.7804 72.5691 52.3121 72.9951 53.8366C73.517 55.7007 74.547 57.3742 75.8486 58.4724C76.4927 57.2853 76.5959 55.6018 76.119 53.894C75.5685 51.9207 74.3042 50.2267 72.8464 49.4785Z" fill="#1E1E51"/>
    </g>
    <path d="M85.1065 48.0484C80.4013 27.2788 71.3537 11.6272 64.8983 13.0897C58.4428 14.5521 57.024 32.5748 61.7293 53.3444C66.4345 74.1141 75.4821 89.7656 81.9375 88.3032C88.393 86.8407 89.8118 68.818 85.1065 48.0484Z" stroke="#232348" stroke-width="1.5" stroke-linecap="round" stroke-linejoin="round"/>
    <path d="M124.328 20.2126L133.308 57.9445L136.981 56.8699L128.353 19.4009L124.328 20.2126Z" fill="#FFF7EF"/>
    <path d="M137.117 57.1234C137.101 57.1323 137.084 57.1413 137.06 57.1453L133.387 58.2199C133.313 58.2423 133.23 58.2311 133.163 58.1941C133.094 58.1537 133.046 58.0889 133.027 58.0132L124.047 20.2814C124.028 20.2057 124.041 20.1257 124.083 20.0601C124.125 19.9945 124.192 19.9503 124.269 19.9346L128.29 19.1246C128.442 19.0949 128.592 19.1906 128.627 19.3438L137.256 56.8128C137.287 56.9424 137.222 57.0713 137.112 57.1303L137.117 57.1234ZM133.518 57.5826L136.642 56.6693L128.137 19.7354L124.678 20.4329L133.518 57.5826Z" fill="#1A1A1A"/>
    <path d="M133.227 92.8119C134.062 92.6867 134.906 92.6678 135.746 92.6949L151.891 93.2414C155.908 93.3785 159.075 97.1804 157.967 101.044C157.202 103.705 154.697 105.653 149.512 106.64L135.136 107.272C130.867 107.458 126.793 104.873 125.591 100.77C124.621 97.4616 125.625 93.9467 133.228 92.8068L133.227 92.8119Z" fill="white"/>
    <path d="M154.622 105.272C153.29 105.986 151.608 106.535 149.563 106.926C149.551 106.928 149.536 106.932 149.522 106.931L135.147 107.563C130.642 107.759 126.507 104.94 125.311 100.856C124.769 99.0109 124.915 97.416 125.744 96.1168C126.906 94.3001 129.404 93.0944 133.178 92.5286C133.934 92.4157 134.776 92.3766 135.751 92.4084L151.897 92.9548C154.004 93.0239 156.007 94.0905 157.251 95.8037C158.397 97.3807 158.757 99.3188 158.238 101.126C157.737 102.868 156.541 104.244 154.619 105.274L154.622 105.272ZM149.475 106.354C154.22 105.444 156.906 103.683 157.687 100.962C158.155 99.3273 157.828 97.5696 156.786 96.1387C155.644 94.5684 153.81 93.5919 151.877 93.5279L135.732 92.9815C134.782 92.9491 133.999 92.9865 133.264 93.0971C129.664 93.6342 127.296 94.7566 126.227 96.4251C125.491 97.5759 125.367 99.0126 125.858 100.691C126.98 104.524 130.873 107.172 135.117 106.986L149.472 106.356L149.475 106.354Z" fill="#1A1A1A"/>
    <path d="M133.136 79.5985C133.968 79.4751 134.816 79.4545 135.655 79.4816L151.801 80.028C155.816 80.1618 158.985 83.967 157.876 87.8305C157.111 90.4916 154.606 92.4395 149.421 93.4264L135.046 94.0581C130.777 94.2449 126.702 91.6597 125.5 87.5566C124.531 84.2483 125.538 80.7316 133.138 79.5934L133.136 79.5985Z" fill="white"/>
    <path d="M154.531 92.0586C153.199 92.7722 151.517 93.3212 149.472 93.7128C149.457 93.7166 149.445 93.7187 149.431 93.7174L135.056 94.3491C130.551 94.5459 126.416 91.727 125.22 87.6424C124.678 85.7975 124.824 84.2026 125.653 82.9035C126.815 81.0867 129.317 79.8792 133.087 79.3152C133.846 79.2005 134.689 79.1615 135.661 79.195L151.806 79.7414C153.914 79.8106 155.916 80.8772 157.16 82.5903C158.306 84.1673 158.666 86.1054 158.148 87.9125C157.646 89.6547 156.45 91.0302 154.528 92.0604L154.531 92.0586ZM149.386 93.1443C154.131 92.2342 156.817 90.4726 157.598 87.7518C158.066 86.1173 157.739 84.3596 156.697 82.9287C155.555 81.3583 153.721 80.3818 151.788 80.3179L135.643 79.7715C134.707 79.7403 133.898 79.7785 133.175 79.887C129.575 80.4242 127.207 81.5466 126.138 83.215C125.402 84.3658 125.278 85.8026 125.769 87.4811C126.891 91.3137 130.784 93.9617 135.028 93.7756L149.383 93.1461L149.386 93.1443Z" fill="#1A1A1A"/>
    <path d="M132.346 65.7458C133.17 65.648 134.002 65.6533 134.827 65.7011L150.63 66.6587C154.56 66.8983 157.427 70.629 156.092 74.304C155.173 76.8373 152.593 78.6366 147.44 79.443L133.299 79.6616C129.097 79.7262 125.267 77.1391 124.348 73.172C123.609 69.9724 124.819 66.6261 132.349 65.744L132.346 65.7458Z" fill="white"/>
    <path d="M152.978 78.0481C151.556 78.81 149.73 79.3631 147.479 79.7147C147.467 79.7168 147.45 79.7172 147.438 79.7193L133.296 79.9378C128.865 80.0055 124.989 77.1894 124.076 73.2407C123.664 71.4549 123.909 69.9317 124.805 68.7087C126.059 67.0011 128.588 65.908 132.327 65.4686C133.086 65.3793 133.891 65.3651 134.858 65.4224L150.661 66.38C152.724 66.503 154.62 67.5793 155.733 69.2556C156.758 70.7987 156.987 72.6694 156.364 74.3862C155.806 75.9182 154.692 77.1339 152.983 78.0496L152.978 78.0481ZM147.428 79.1706C152.142 78.4275 154.888 76.8099 155.826 74.2235C156.39 72.671 156.181 70.9743 155.251 69.5741C154.23 68.0376 152.494 67.0516 150.604 66.939L134.801 65.9814C133.869 65.9264 133.099 65.9397 132.371 66.0247C128.807 66.444 126.411 67.457 125.259 69.0279C124.462 70.1126 124.248 71.4858 124.624 73.11C125.48 76.8146 129.134 79.4575 133.307 79.3954L147.431 79.1773L147.428 79.1706Z" fill="#1A1A1A"/>
    <path d="M169.921 105.112C169.921 105.112 156.224 89.9744 174.53 80.1052C177.507 78.5014 151.597 90.2628 146.768 82.5487C141.936 74.8314 155.824 68.3991 170.582 63.2061" fill="white"/>
    <path d="M170.056 105.366C169.943 105.427 169.798 105.405 169.706 105.305C169.644 105.239 163.615 98.4682 164.891 91.0609C165.549 87.2458 167.988 83.9325 172.153 81.1855C157.749 86.3431 149.125 86.8529 146.524 82.6962C145.463 81.005 145.23 79.2785 145.827 77.5709C147.935 71.5479 160.113 66.582 170.49 62.9291C170.637 62.8758 170.804 62.9542 170.855 63.1069C170.909 63.2544 170.827 63.4228 170.678 63.4727C161.222 66.7997 148.415 71.9054 146.368 77.7622C145.822 79.3176 146.033 80.833 147.01 82.3928C149.533 86.4195 158.409 85.6586 173.388 80.1239C174.4 79.7509 174.945 79.6547 175.025 79.8354C175.144 80.098 174.901 80.2286 174.664 80.3555C169.29 83.252 166.193 86.8837 165.456 91.1534C164.225 98.2832 170.072 104.85 170.13 104.918C170.237 105.037 170.227 105.219 170.111 105.324C170.095 105.341 170.074 105.352 170.054 105.362L170.056 105.366Z" fill="#1A1A1A"/>
    <path d="M14.0889 22.7258L29.0689 36.2438L29.3599 30.7866L43.041 37.6406L26.2336 22.6167L25.5138 27.7051L14.0889 22.7258Z" fill="#FFDB20" stroke="#1A1A1A" stroke-width="1.5" stroke-linecap="round" stroke-linejoin="round"/>
    <path d="M29.852 84.2837L47.0353 73.7066L41.882 71.8923L52.3039 60.689L33.1625 72.5966L37.8452 74.7175L29.852 84.2837Z" fill="#FFDB20" stroke="#1A1A1A" stroke-width="1.5" stroke-linecap="round" stroke-linejoin="round"/>
    <path d="M2.37599 61.1317L27.3002 60.8454L22.9901 55.6453L41.1539 50.4017L13.3104 50.851L16.9202 56.0727L2.37599 61.1317Z" fill="white" stroke="#1A1A1A" stroke-width="1.5" stroke-linecap="round" stroke-linejoin="round"/>
  </g>
</svg>