<svg width="82" height="32" viewBox="0 0 82 32" fill="none" xmlns="http://www.w3.org/2000/svg">
<mask id="mask0_1_46" style="mask-type:alpha" maskUnits="userSpaceOnUse" x="0" y="0" width="82" height="32">
<rect width="82" height="32" fill="#D9D9D9"/>
</mask>
<g mask="url(#mask0_1_46)">
<path d="M8.99515 10.0014C9.27505 10.0014 9.50097 9.7782 9.50097 9.50163V6.5028C9.50097 6.22623 9.27505 6.003 8.99515 6.003H7.47769C6.94988 6.0188 6.41807 5.96744 5.89226 6.04053C4.55273 6.2282 3.46912 7.43129 3.43313 8.76674C3.42713 9.63399 3.43313 10.4993 3.43113 11.3665C3.43113 11.8209 3.43113 12.2753 3.43113 12.7276C3.49111 13.342 3.08326 13.913 2.44948 13.992C2.29354 14.0078 2.1356 13.9979 1.97765 13.9999C1.81771 13.9999 1.65777 13.9999 1.49782 13.9999C1.22192 14.0038 1 14.2251 1 14.4997V17.4985C1 17.7711 1.22192 17.9924 1.49582 17.9983C1.77372 17.9983 2.05362 17.9983 2.33153 17.9983C2.79736 18.0042 3.2332 18.3263 3.37315 18.7648C3.45313 18.9979 3.42314 19.2488 3.42913 19.4918C3.42913 20.4084 3.42913 21.3231 3.42913 22.2397C3.42913 22.5301 3.42913 22.8206 3.42913 23.111C3.40514 24.4918 4.50675 25.768 5.89026 25.9596C6.41607 26.0327 6.94788 25.9814 7.47569 25.9952H8.99315C9.27305 25.9952 9.49897 25.772 9.49897 25.4954V22.4966C9.49897 22.22 9.27305 21.9968 8.99315 21.9968H7.47569V21.9987C7.47569 21.013 7.47569 20.0252 7.47569 19.0394C7.46369 17.947 7.08583 16.8604 6.40607 15.9991C7.15181 15.0588 7.51968 13.8537 7.47569 12.6625C7.47569 11.7754 7.47569 10.8865 7.47569 9.99946L8.99315 10.0014H8.99515Z" fill="white"/>
<path d="M17.9959 11.9928C18.0019 10.1101 17.2022 8.23928 15.8167 6.94532C15.6328 6.77345 15.4429 6.60751 15.2409 6.45737C14.891 6.17289 14.4432 6.00102 13.9534 6.00102H12.0301C11.7502 6.00102 11.5242 6.22426 11.5242 6.50083V9.49966C11.5242 9.77623 11.7502 9.99946 12.0301 9.99946H13.1837C13.2416 10.0666 13.2996 10.1358 13.3556 10.2049C13.4116 10.282 13.4656 10.359 13.5155 10.438C13.5635 10.519 13.6095 10.602 13.6515 10.6869C13.6915 10.7739 13.7295 10.8628 13.7654 10.9517C13.7994 11.0465 13.8294 11.1413 13.8554 11.2381C13.8794 11.3369 13.8994 11.4357 13.9174 11.5364C13.9474 11.7379 13.9574 11.9394 13.9494 12.1429C13.9434 12.2456 13.9314 12.3464 13.9174 12.4491C13.8714 12.7415 13.7814 13.026 13.6535 13.2926C13.6095 13.3776 13.5635 13.4606 13.5155 13.5435C13.4136 13.7055 13.2996 13.8576 13.1717 13.9979H12.0321C11.7522 13.9979 11.5262 14.2211 11.5262 14.4977V17.4965C11.5262 17.7731 11.7522 17.9963 12.0321 17.9963H13.9554C14.4492 17.9963 14.901 17.8205 15.2529 17.5321C15.4369 17.376 15.6248 17.2219 15.8007 17.056C17.1982 15.762 18.0079 13.8833 17.9999 11.9928H17.9959Z" fill="white"/>
<path d="M30.464 10.6444L26 22.0789H29.5787L30.2396 20.2085H34.5914L35.2523 22.0789H38.8559L34.3919 10.6444H30.464ZM31.1 17.7769L32.4093 14.0735L33.731 17.7769H31.1Z" fill="white"/>
<path d="M44.093 10.6444H40.6889V22.0789H44.093V10.6444Z" fill="white"/>
<path d="M54.3429 11.1308C53.6571 10.8065 52.8216 10.6444 51.8366 10.6444H46.7366V22.0789H50.1407V18.2134H51.8241C52.8216 18.2134 53.6695 18.0388 54.3554 17.7021C55.0412 17.3654 55.5649 16.9041 55.9016 16.343C56.2382 15.7694 56.4128 15.1459 56.4128 14.4476C56.4128 13.6994 56.2382 13.0386 55.8891 12.465C55.5524 11.9039 55.0287 11.455 54.3429 11.1308ZM51.4999 15.6945H50.1407V13.2131H51.4999C52.46 13.2131 52.9463 13.6246 52.9463 14.4601C52.9463 15.2831 52.46 15.6945 51.4999 15.6945Z" fill="white"/>
<path d="M64.892 17.865C64.892 18.3887 64.7424 18.7877 64.4556 19.0869C64.1688 19.3862 63.7698 19.5358 63.271 19.5358C62.7847 19.5358 62.3981 19.3862 62.0989 19.0869C61.7996 18.7877 61.65 18.3762 61.65 17.865V13.5007H58.2583V18.264C58.2583 19.461 58.5825 20.4087 59.2434 21.107C59.8918 21.8053 60.7896 22.1544 61.9243 22.1544C63.0341 22.1544 64.1314 21.9798 64.8795 21.2192V22.0671H68.3086V13.4882H64.8795V17.865H64.892Z" fill="white"/>
<path d="M81.2399 14.8333C80.8783 14.135 80.3795 13.5864 79.7435 13.2123C79.1076 12.8382 78.4093 12.6387 77.6362 12.6387C76.9753 12.6387 76.4018 12.7634 75.9154 13.0003C75.4291 13.2497 75.0551 13.5864 74.7807 14.0104V9.84558H71.3766V21.8536H74.7807V20.5942C75.0426 21.0306 75.4291 21.3673 75.9154 21.6042C76.4018 21.8536 76.9753 21.9658 77.6362 21.9658C78.4093 21.9658 79.1201 21.7788 79.7435 21.3922C80.3795 21.0181 80.8783 20.4695 81.2399 19.7587C81.6015 19.048 81.7885 18.225 81.7885 17.2898C81.7885 16.3546 81.6015 15.5316 81.2399 14.8333ZM77.8607 18.6864C77.5489 19.023 77.1749 19.1976 76.726 19.1976C76.2771 19.1976 75.903 19.0355 75.5912 18.6988C75.2795 18.3622 75.1299 17.9008 75.1299 17.3023C75.1299 16.7162 75.2795 16.2548 75.5912 15.9182C75.903 15.5815 76.2771 15.4194 76.726 15.4194C77.1749 15.4194 77.5489 15.5815 77.8607 15.9182C78.1724 16.2424 78.322 16.7162 78.322 17.3023C78.322 17.8759 78.1724 18.3497 77.8607 18.6864Z" fill="white"/>
</g>
</svg>
